<?xml version="1.0" encoding="utf-8"?>
<!DOCTYPE svg PUBLIC "-//W3C//DTD SVG 20010904//EN" "http://www.w3.org/TR/2001/REC-SVG-20010904/DTD/svg10.dtd">
<svg version="1.0" xmlns="http://www.w3.org/2000/svg" width="140px" height="75px" viewBox="0 0 512 414" style="" preserveAspectRatio="xMidYMid meet">
<g fill="#050600FF" stroke="#050600FF">
<path d="M 145.000 208.155 C 142.525 211.495 139.015 215.373 137.200 216.771 C 130.932 221.600 127.157 230.690 128.911 236.731 C 129.766 239.673 129.610 240.078 127.175 241.243 C 123.862 242.828 120.960 250.799 120.528 259.500 C 120.365 262.800 118.604 271.603 116.615 279.061 C 114.627 286.520 113.000 294.526 113.000 296.851 C 113.000 302.293 116.210 308.544 120.290 311.049 C 123.303 312.899 148.069 321.414 158.000 324.016 C 163.445 325.442 166.000 327.936 166.000 331.825 C 166.000 335.133 164.383 334.305 194.000 346.155 C 203.625 350.006 211.863 353.507 212.307 353.935 C 212.751 354.363 209.051 356.179 204.086 357.969 C 199.121 359.759 194.503 361.894 193.824 362.713 C 192.836 363.902 192.914 365.437 194.208 370.351 C 196.641 379.592 200.003 388.000 201.264 388.000 C 201.880 388.000 213.911 383.924 227.999 378.943 L 253.613 369.886 278.057 379.442 C 291.501 384.697 302.862 388.998 303.305 388.999 C 305.435 389.002 312.764 367.433 311.634 364.488 C 311.102 363.101 304.943 359.874 297.000 356.821 C 293.681 355.545 294.162 355.300 313.139 348.608 C 335.092 340.868 339.990 338.868 340.077 337.611 C 340.470 331.892 342.834 329.416 349.202 328.050 C 357.512 326.268 381.216 319.006 385.712 316.864 C 393.331 313.236 395.977 305.382 393.414 294.000 C 389.680 277.416 387.919 267.653 388.424 266.338 C 389.024 264.775 386.376 251.677 384.881 248.818 C 384.398 247.892 383.155 246.866 382.119 246.538 C 380.457 246.010 380.296 245.185 380.749 239.533 C 381.199 233.926 380.945 232.587 378.714 228.813 C 377.311 226.441 374.413 222.856 372.272 220.846 C 370.132 218.837 366.833 214.911 364.941 212.122 C 361.242 206.671 359.649 205.645 360.482 209.250 C 360.768 210.488 360.377 214.425 359.613 218.000 C 356.634 231.942 359.669 240.675 369.532 246.540 C 371.063 247.450 371.110 247.852 369.909 249.774 C 368.736 251.652 368.781 253.145 370.219 260.101 C 371.144 264.574 372.510 268.968 373.255 269.866 C 374.000 270.765 375.854 276.735 377.375 283.133 C 379.697 292.899 379.969 295.400 379.074 298.724 C 377.305 305.295 375.108 306.596 356.717 311.962 C 338.650 317.234 337.983 317.337 334.162 315.431 C 331.881 314.293 329.770 314.007 327.195 314.488 C 322.616 315.342 289.683 326.078 269.277 333.369 L 254.055 338.808 230.277 329.335 C 204.989 319.260 189.824 313.742 181.198 311.475 C 176.484 310.237 175.514 310.264 172.456 311.722 C 169.057 313.343 168.817 313.297 151.572 307.651 C 132.641 301.453 129.762 299.580 128.454 292.609 C 127.729 288.739 133.002 267.769 135.363 265.137 C 138.613 261.513 141.315 244.931 138.899 243.437 C 138.251 243.037 139.365 241.878 141.607 240.620 C 143.703 239.445 146.772 236.555 148.428 234.199 C 151.064 230.448 151.435 229.080 151.405 223.207 C 151.356 213.604 150.586 202.001 150.000 202.044 C 149.725 202.064 147.475 204.814 145.000 208.155 M 316.378 324.750 C 316.016 326.263 315.669 327.551 315.609 327.613 C 315.549 327.675 298.850 333.245 278.500 339.990 C 228.606 356.528 201.651 366.025 200.765 367.378 C 200.361 367.995 199.987 370.300 199.934 372.500 L 199.837 376.500 198.473 373.390 C 195.561 366.751 195.589 365.261 198.660 363.704 C 205.005 360.485 312.715 322.176 315.769 322.052 C 316.651 322.016 316.837 322.838 316.378 324.750 M 207.042 324.870 C 237.099 336.283 247.000 340.296 247.000 341.064 C 247.000 341.491 245.659 342.136 244.020 342.496 C 241.696 343.006 235.585 341.114 216.270 333.903 C 202.646 328.818 191.451 324.621 191.391 324.578 C 190.735 324.109 190.170 319.000 190.773 319.000 C 191.219 319.000 198.540 321.641 207.042 324.870 M 389.973 302.500 C 389.998 307.699 387.050 312.430 382.289 314.829 C 377.681 317.151 357.011 322.342 354.387 321.836 C 353.349 321.636 357.450 319.965 363.500 318.124 C 378.291 313.622 383.597 311.265 385.510 308.345 C 387.214 305.744 387.558 300.144 386.611 290.431 L 386.032 284.500 387.993 291.500 C 389.072 295.350 389.963 300.300 389.973 302.500 M 385.526 301.711 C 384.080 309.419 377.404 312.901 355.000 317.628 C 341.787 320.417 344.931 318.566 362.000 313.507 C 382.136 307.540 383.628 305.933 382.660 291.256 L 382.082 282.500 384.152 290.248 C 385.560 295.514 386.000 299.187 385.526 301.711 M 120.849 289.355 C 119.748 296.970 119.796 298.349 121.269 301.438 C 123.232 305.554 125.932 307.022 142.697 313.087 C 156.018 317.906 154.162 318.731 139.500 314.507 C 122.328 309.560 117.769 305.957 117.769 297.334 C 117.769 292.709 120.819 279.485 121.685 280.352 C 121.909 280.576 121.533 284.627 120.849 289.355 M 125.518 284.217 C 123.980 293.721 124.645 298.463 127.933 301.439 C 128.989 302.395 136.484 305.610 144.586 308.582 C 152.689 311.554 159.552 314.218 159.836 314.503 C 161.647 316.314 131.788 307.702 128.202 305.380 C 124.858 303.214 122.008 298.013 122.004 294.068 C 122.000 290.703 125.919 274.585 126.580 275.246 C 126.765 275.431 126.287 279.468 125.518 284.217 M 298.500 361.143 C 309.812 365.601 309.787 365.566 306.897 373.183 L 304.500 379.500 304.500 373.568 L 304.500 367.636 294.090 363.455 C 284.531 359.616 283.163 358.299 288.500 358.074 C 289.600 358.027 294.100 359.408 298.500 361.143 M 374.357 235.855 C 377.724 240.150 379.390 244.041 378.287 245.034 C 377.854 245.423 376.341 246.014 374.924 246.346 C 372.711 246.866 372.111 246.456 370.674 243.442 C 368.654 239.207 368.321 227.259 370.309 230.355 C 370.964 231.376 372.786 233.851 374.357 235.855 M 140.874 232.065 C 140.362 234.345 139.281 237.490 138.472 239.053 C 137.122 241.665 136.757 241.811 134.001 240.851 C 132.350 240.275 131.000 239.369 131.000 238.836 C 131.000 237.137 133.190 233.610 136.644 229.747 C 138.490 227.683 140.039 225.208 140.086 224.247 C 140.136 223.227 140.512 223.627 140.989 225.210 C 141.438 226.700 141.386 229.785 140.874 232.065 M 184.750 318.538 C 187.309 321.465 187.646 326.205 185.563 329.968 C 184.286 332.273 184.231 332.128 184.723 327.765 C 185.198 323.552 184.952 322.798 182.202 320.048 C 180.352 318.198 178.121 317.000 176.527 317.000 C 173.293 317.000 168.028 319.616 167.921 321.276 C 167.871 322.051 167.677 322.102 167.393 321.415 C 166.768 319.908 171.687 315.194 174.327 314.770 C 177.908 314.194 182.359 315.803 184.750 318.538 M 335.027 319.692 C 337.659 321.493 338.960 323.004 338.985 324.289 C 338.993 324.723 338.015 324.160 336.811 323.039 C 331.803 318.372 322.702 321.744 321.387 328.753 C 320.745 332.173 320.641 332.262 319.832 330.074 C 319.220 328.421 319.486 326.666 320.732 324.123 C 323.592 318.288 330.051 316.286 335.027 319.692 M 374.051 252.365 C 372.995 255.144 374.384 262.384 376.637 265.839 C 378.046 267.999 378.024 268.151 376.357 267.830 C 374.176 267.410 371.131 259.994 371.054 254.917 C 370.996 251.081 371.565 250.000 373.642 250.000 C 374.605 250.000 374.713 250.625 374.051 252.365 M 137.443 250.188 C 137.366 256.429 134.363 263.005 131.598 262.985 C 130.360 262.976 129.955 262.668 130.610 262.235 C 133.889 260.066 136.714 250.203 134.984 246.969 C 133.988 245.109 134.080 244.871 135.667 245.189 C 137.138 245.485 137.489 246.472 137.443 250.188 M 184.073 339.000 C 184.766 339.000 185.099 339.235 184.812 339.521 C 184.525 339.808 183.233 339.652 181.941 339.174 L 179.592 338.305 182.546 336.902 C 185.311 335.590 185.414 335.612 184.156 337.250 C 183.108 338.614 183.090 339.000 184.073 339.000 M 330.685 335.898 L 327.500 335.795 330.801 335.014 C 332.616 334.584 334.416 333.976 334.801 333.664 C 335.185 333.351 335.133 333.749 334.685 334.548 C 334.215 335.384 332.519 335.957 330.685 335.898 M 324.439 342.099 C 324.041 342.743 323.321 342.681 322.411 341.926 C 320.277 340.155 320.721 338.780 323.028 340.015 C 324.143 340.612 324.778 341.550 324.439 342.099 M 173.800 331.079 C 174.895 331.130 175.043 331.341 174.216 331.673 C 172.726 332.272 169.986 330.278 170.030 328.628 C 170.047 328.007 170.519 328.288 171.080 329.250 C 171.641 330.213 172.865 331.036 173.800 331.079 "/></g>
<g fill="#050600FF" stroke="#050600FF">
<path d="M 241.444 241.374 C 235.381 244.197 229.888 250.320 226.857 257.632 C 225.633 260.585 224.076 263.000 223.396 263.000 C 221.136 263.000 198.350 256.158 191.954 253.559 C 188.490 252.152 185.566 251.000 185.458 251.000 C 185.195 251.000 190.246 269.013 192.510 276.151 C 193.995 280.831 194.956 282.169 198.108 283.941 C 200.999 285.565 202.703 287.693 205.196 292.790 C 209.774 302.149 220.097 312.251 229.543 316.615 C 254.885 328.324 282.935 320.413 298.362 297.207 C 300.828 293.498 303.163 289.199 303.551 287.655 C 304.012 285.817 305.422 284.290 307.626 283.238 C 310.452 281.891 311.468 280.408 313.910 274.066 C 315.513 269.904 317.562 263.575 318.464 260.000 C 319.367 256.425 320.339 252.705 320.625 251.733 C 321.053 250.279 320.288 250.472 316.298 252.824 C 309.716 256.705 300.146 260.427 290.333 262.923 C 285.842 264.065 281.965 265.000 281.719 265.000 C 281.473 265.000 280.463 262.863 279.474 260.250 C 278.486 257.638 276.994 254.375 276.160 253.000 C 268.700 240.705 253.682 235.675 241.444 241.374 M 258.579 248.493 C 263.925 251.627 270.975 259.620 274.451 266.490 C 278.290 274.078 279.967 281.121 280.643 292.500 C 281.191 301.710 281.069 302.712 279.096 305.187 C 274.412 311.063 257.041 314.431 243.543 312.081 C 235.996 310.767 227.591 306.983 226.625 304.465 C 226.281 303.569 226.000 299.120 226.000 294.578 C 226.000 285.170 228.580 273.735 232.408 266.182 C 236.760 257.594 248.693 246.141 253.412 246.023 C 253.914 246.010 256.239 247.122 258.579 248.493 M 313.491 271.026 C 311.077 278.295 307.141 282.330 299.474 285.400 C 291.941 288.415 287.228 288.757 286.306 286.355 C 285.381 283.946 287.996 282.500 295.800 281.105 C 304.867 279.485 308.025 277.395 311.535 270.690 C 313.139 267.626 314.621 265.288 314.828 265.495 C 315.035 265.701 314.433 268.191 313.491 271.026 M 201.638 277.675 C 202.814 278.449 207.314 279.785 211.638 280.643 C 219.591 282.221 222.340 283.950 221.282 286.709 C 220.469 288.825 214.820 287.929 207.082 284.456 C 199.840 281.206 196.915 278.063 194.078 270.478 C 191.173 262.715 191.454 262.619 195.750 269.906 C 197.813 273.404 200.462 276.900 201.638 277.675 M 252.000 316.673 C 259.466 317.034 262.964 316.713 268.341 315.175 C 276.661 312.795 275.907 314.038 267.282 316.921 C 259.144 319.642 248.873 319.676 241.283 317.008 C 238.167 315.913 235.145 314.545 234.568 313.968 C 233.991 313.391 235.540 313.661 238.010 314.567 C 240.479 315.473 246.775 316.421 252.000 316.673 "/></g>
<g fill="#A5A5A4FF" stroke="#A5A5A4FF">
<path d="M 239.000 121.493 C 234.875 122.288 229.475 123.538 227.000 124.271 L 222.500 125.603 222.755 160.974 C 222.896 180.427 223.186 196.519 223.400 196.733 C 223.614 196.947 230.361 197.388 238.394 197.714 L 253.000 198.306 253.236 164.903 L 253.472 131.500 253.750 164.250 L 254.027 197.000 265.889 197.000 C 272.412 197.000 279.162 196.718 280.888 196.372 L 284.026 195.745 283.763 161.122 L 283.500 126.500 275.000 123.640 C 264.536 120.119 250.477 119.280 239.000 121.493 "/></g>
<g fill="#A5A5A4FF" stroke="#A5A5A4FF">
<path d="M 249.386 247.982 C 241.579 251.566 232.439 263.627 228.913 275.000 C 226.800 281.815 225.257 298.903 226.358 303.290 C 227.277 306.951 235.529 310.718 245.586 312.067 C 258.757 313.834 274.722 310.698 279.000 305.504 C 280.122 304.142 280.473 301.263 280.394 294.091 C 280.208 277.187 275.223 264.260 264.900 253.913 C 257.780 246.777 254.633 245.574 249.386 247.982 M 259.000 252.027 C 262.011 254.153 266.337 258.935 269.602 263.745 C 271.837 267.039 272.000 268.189 272.000 280.640 C 272.000 291.849 272.242 294.000 273.500 294.000 C 274.717 294.000 275.022 292.253 275.119 284.750 L 275.238 275.500 276.523 280.500 C 277.230 283.250 277.851 289.432 277.904 294.237 L 278.000 302.975 274.059 305.463 C 271.891 306.831 268.741 308.193 267.059 308.490 L 264.000 309.029 264.000 301.514 C 264.000 297.171 264.422 294.000 265.000 294.000 C 265.615 294.000 266.000 289.000 266.000 281.000 C 266.000 273.850 265.620 268.000 265.156 268.000 C 264.334 268.000 263.011 289.671 263.004 303.250 L 263.000 310.000 258.000 310.000 L 253.000 310.000 253.000 302.000 C 253.000 297.333 253.417 294.000 254.000 294.000 C 254.615 294.000 255.000 289.000 255.000 281.000 C 255.000 273.850 254.597 268.000 254.104 268.000 C 253.611 268.000 252.879 277.450 252.476 289.000 L 251.745 310.000 248.500 310.000 L 245.255 310.000 244.524 289.000 C 244.121 277.450 243.389 268.000 242.896 268.000 C 242.403 268.000 242.000 273.850 242.000 281.000 C 242.000 289.000 242.385 294.000 243.000 294.000 C 243.578 294.000 244.000 297.167 244.000 301.500 C 244.000 308.663 243.896 309.000 241.696 309.000 C 240.429 309.000 237.103 307.859 234.305 306.464 C 229.649 304.144 229.163 303.571 228.593 299.714 C 227.891 294.973 229.300 282.551 231.227 276.500 C 232.449 272.661 232.511 272.933 232.784 283.250 C 233.012 291.900 233.354 294.000 234.534 294.000 C 235.756 294.000 236.000 291.537 236.000 279.200 L 236.000 264.399 241.203 258.561 C 249.755 248.966 252.985 247.781 259.000 252.027 "/></g>
<g fill="#050600FF" stroke="#050600FF">
<path d="M 214.228 137.176 C 206.856 140.861 197.811 148.461 193.279 154.780 C 191.507 157.251 189.151 159.906 188.043 160.682 C 185.785 162.264 182.586 171.997 181.038 181.995 C 180.485 185.567 179.575 188.642 179.016 188.828 C 178.457 189.014 178.000 189.804 178.000 190.583 C 178.000 191.804 181.998 192.644 185.271 192.111 C 185.696 192.042 189.071 192.645 192.771 193.450 C 199.403 194.893 215.363 196.992 219.750 196.997 L 222.000 197.000 222.000 165.500 C 222.000 148.175 221.663 134.009 221.250 134.021 C 220.838 134.032 217.678 135.452 214.228 137.176 M 188.930 166.243 C 188.419 168.027 187.995 172.415 187.989 175.993 C 187.983 179.572 187.701 184.173 187.363 186.218 C 186.825 189.475 186.516 189.811 184.874 188.933 C 183.631 188.268 183.006 186.847 183.017 184.715 C 183.037 181.005 185.327 169.784 186.887 165.750 C 188.410 161.812 190.085 162.216 188.930 166.243 M 219.000 137.986 C 219.000 138.528 216.413 140.282 213.250 141.884 C 210.088 143.485 205.700 146.120 203.500 147.739 L 199.500 150.682 203.500 146.749 C 207.147 143.163 216.432 137.032 218.250 137.009 C 218.663 137.004 219.000 137.444 219.000 137.986 "/></g>
<g fill="#050600FF" stroke="#050600FF">
<path d="M 284.000 165.562 L 284.000 197.233 290.750 196.555 C 294.463 196.182 303.507 195.005 310.849 193.939 C 318.192 192.872 324.884 192.000 325.722 192.000 C 326.812 192.000 326.958 191.645 326.236 190.750 C 325.680 190.063 324.924 187.475 324.555 185.000 C 321.961 167.609 321.069 165.065 314.890 157.444 C 307.927 148.856 300.122 142.391 290.750 137.450 L 284.000 133.891 284.000 165.562 M 321.584 186.640 C 321.112 187.872 313.755 190.477 308.000 191.452 C 304.957 191.967 305.143 191.784 309.421 190.054 C 312.128 188.959 314.709 187.486 315.156 186.782 C 315.603 186.077 315.976 182.433 315.985 178.684 C 315.993 174.936 316.535 170.886 317.188 169.684 C 318.243 167.747 318.583 168.516 320.202 176.494 C 321.205 181.441 321.828 186.007 321.584 186.640 "/></g>
<g fill="#050600FF" stroke="#050600FF">
<path d="M 199.489 36.242 C 193.995 37.873 189.399 39.299 189.275 39.412 C 189.076 39.593 197.343 68.675 198.440 71.658 C 198.738 72.466 201.975 71.911 209.183 69.815 C 219.985 66.675 223.000 64.931 223.000 61.822 C 223.000 60.181 216.194 35.949 215.528 35.219 C 215.387 35.065 213.968 34.564 212.375 34.108 C 210.231 33.493 206.885 34.047 199.489 36.242 M 213.606 50.580 C 215.774 58.156 216.389 61.691 215.615 62.123 C 213.474 63.319 204.031 65.364 203.428 64.762 C 202.312 63.645 196.867 43.800 197.498 43.145 C 198.379 42.231 208.299 39.161 209.490 39.434 C 210.035 39.558 211.887 44.574 213.606 50.580 "/></g>
<g fill="#050600FF" stroke="#050600FF">
<path d="M 427.679 129.594 C 420.385 136.062 417.044 139.673 417.429 140.676 C 417.743 141.494 418.000 142.766 418.000 143.502 C 418.000 144.238 420.502 147.771 423.561 151.354 C 431.990 161.228 432.714 161.180 445.503 149.904 C 458.210 138.699 458.394 137.980 450.879 128.950 C 446.833 124.089 441.307 120.000 438.782 120.000 C 438.627 120.000 433.630 124.317 427.679 129.594 M 445.860 131.078 C 447.708 133.228 449.283 135.565 449.360 136.271 C 449.437 136.978 445.675 141.028 441.000 145.271 L 432.500 152.987 428.250 148.271 C 425.913 145.677 424.000 143.051 424.000 142.436 C 424.000 141.027 439.945 126.970 441.414 127.085 C 442.011 127.131 444.012 128.928 445.860 131.078 "/></g>
<g fill="#050600FF" stroke="#050600FF">
<path d="M 292.884 35.489 C 290.036 37.051 290.007 37.159 287.843 54.869 L 286.576 65.238 289.215 67.509 C 291.254 69.262 293.636 69.935 299.677 70.466 C 304.396 70.880 308.570 70.744 310.196 70.122 C 313.178 68.981 313.082 69.321 315.454 51.505 L 316.918 40.510 314.209 38.343 C 312.543 37.010 309.383 35.934 306.000 35.548 C 302.975 35.202 299.375 34.725 298.000 34.487 C 296.625 34.250 294.323 34.701 292.884 35.489 M 309.378 42.050 C 310.118 42.729 307.603 64.731 306.680 65.654 C 306.383 65.951 293.739 64.072 293.338 63.671 C 293.221 63.554 293.836 58.165 294.705 51.696 L 296.284 39.933 302.392 40.588 C 305.751 40.948 308.895 41.606 309.378 42.050 "/></g>
<g fill="#050600FF" stroke="#050600FF">
<path d="M 247.281 252.750 L 244.137 255.500 244.818 282.500 L 245.500 309.500 248.750 309.813 L 252.000 310.127 252.005 292.313 C 252.010 270.662 253.005 252.000 254.153 252.000 C 254.619 252.000 255.000 265.050 255.000 281.000 L 255.000 310.000 257.750 309.985 C 259.263 309.976 261.004 309.639 261.619 309.235 C 262.376 308.738 262.892 300.081 263.215 282.500 L 263.692 256.500 260.151 253.250 C 255.639 249.110 251.621 248.954 247.281 252.750 "/></g>
<g fill="#7F1800FF" stroke="#7F1800FF">
<path d="M 294.735 201.229 L 289.969 202.222 290.235 229.957 L 290.500 257.693 298.000 255.565 L 305.500 253.437 305.766 226.719 L 306.033 200.000 302.766 200.118 C 300.970 200.183 297.356 200.683 294.735 201.229 "/></g>
<g fill="#848484FF" stroke="#848484FF">
<path d="M 253.236 164.750 L 253.000 198.000 244.750 197.993 C 240.213 197.989 233.475 197.700 229.778 197.351 L 223.056 196.716 222.746 183.608 L 222.437 170.500 222.218 183.750 C 222.003 196.826 221.970 197.000 219.712 197.000 C 216.042 197.000 194.039 194.142 193.062 193.538 C 192.572 193.236 189.096 192.722 185.336 192.396 C 181.576 192.071 178.090 191.553 177.590 191.244 C 177.052 190.913 176.950 193.876 177.340 198.493 C 177.703 202.788 178.000 207.509 178.000 208.984 C 178.000 210.702 178.539 211.667 179.500 211.667 C 180.726 211.667 181.000 209.963 181.000 202.333 C 181.000 197.200 181.188 193.000 181.417 193.000 C 181.646 193.000 183.784 193.829 186.167 194.843 C 188.550 195.856 192.525 196.971 195.000 197.320 C 197.475 197.670 200.625 198.188 202.000 198.473 C 217.072 201.594 229.061 202.456 257.000 202.428 C 284.563 202.401 287.493 202.222 301.622 199.702 C 309.940 198.218 318.320 196.346 320.245 195.542 C 322.171 194.738 324.028 194.361 324.373 194.706 C 324.718 195.051 325.000 198.858 325.000 203.167 C 325.000 209.776 325.258 211.000 326.648 211.000 C 328.101 211.000 328.226 209.924 327.706 201.891 C 327.381 196.881 326.886 192.553 326.606 192.272 C 326.325 191.992 319.436 192.762 311.298 193.985 C 301.169 195.507 289.800 196.365 275.264 196.707 L 254.028 197.206 253.750 164.353 L 253.472 131.500 253.236 164.750 "/></g>
<g fill="#050600FF" stroke="#050600FF">
<path d="M 108.655 72.829 C 107.745 73.835 107.000 75.011 107.000 75.443 C 107.000 75.875 109.720 80.732 113.045 86.236 C 116.370 91.740 118.931 96.402 118.737 96.597 C 118.542 96.791 113.707 94.249 107.992 90.948 L 97.601 84.944 95.157 87.389 L 92.713 89.833 98.772 100.166 C 102.105 105.850 104.532 110.608 104.166 110.741 C 103.800 110.874 99.015 108.304 93.534 105.031 C 84.248 99.486 83.447 99.191 81.784 100.695 C 80.803 101.583 80.000 102.654 80.000 103.074 C 80.000 103.918 108.373 121.000 109.775 121.000 C 110.257 121.000 111.613 119.976 112.788 118.725 L 114.925 116.451 108.887 106.135 C 105.566 100.461 103.010 95.657 103.207 95.460 C 103.404 95.262 108.276 97.766 114.033 101.022 L 124.500 106.943 126.910 104.539 L 129.321 102.134 120.040 86.567 C 114.936 78.005 110.658 71.000 110.535 71.000 C 110.411 71.000 109.565 71.823 108.655 72.829 "/></g>
<g fill="#050600FF" stroke="#050600FF">
<path d="M 56.610 128.928 C 54.221 130.495 45.046 144.121 45.011 146.153 C 44.999 146.887 72.710 164.000 73.910 164.000 C 74.678 164.000 77.332 158.942 76.787 158.517 C 76.629 158.394 74.363 157.059 71.750 155.551 C 66.872 152.736 66.566 152.295 67.607 149.582 C 68.089 148.326 69.827 148.000 76.050 148.000 C 83.014 148.000 84.060 147.753 85.443 145.777 C 86.299 144.555 87.000 143.225 87.000 142.821 C 87.000 142.418 83.738 141.955 79.750 141.794 L 72.500 141.500 72.202 137.961 C 72.034 135.959 71.165 133.969 70.202 133.379 C 59.724 126.964 59.644 126.938 56.610 128.928 M 65.372 138.250 C 67.179 139.603 67.148 139.807 64.488 144.076 C 62.972 146.509 61.609 148.645 61.460 148.822 C 61.052 149.307 53.000 144.075 53.000 143.325 C 53.000 142.968 54.145 140.722 55.544 138.335 C 58.035 134.084 58.144 134.023 60.794 135.421 C 62.282 136.206 64.343 137.479 65.372 138.250 "/></g>
<g fill="#050600FF" stroke="#050600FF">
<path d="M 452.000 163.527 C 444.575 168.127 438.374 172.486 438.221 173.214 C 438.068 173.943 438.543 175.361 439.278 176.365 C 440.534 178.083 441.168 177.856 449.924 172.546 C 455.044 169.441 459.389 167.055 459.578 167.245 C 459.767 167.434 457.424 172.891 454.371 179.371 C 449.256 190.232 448.917 191.386 450.048 194.115 C 450.722 195.743 451.593 196.946 451.983 196.788 C 455.530 195.349 480.993 179.302 480.968 178.520 C 480.951 177.959 480.291 176.647 479.501 175.604 C 478.125 173.787 477.681 173.939 468.783 179.269 C 463.677 182.327 459.373 184.485 459.217 184.065 C 459.061 183.645 461.413 178.026 464.442 171.578 C 469.714 160.358 469.883 159.750 468.360 157.427 C 467.486 156.092 466.484 155.037 466.135 155.082 C 465.786 155.128 459.425 158.928 452.000 163.527 "/></g>
<g fill="#050600FF" stroke="#050600FF">
<path d="M 30.663 207.521 C 22.503 208.796 15.693 209.989 15.530 210.170 C 15.367 210.352 14.944 211.855 14.590 213.511 C 13.953 216.487 14.121 216.627 29.478 225.922 C 38.020 231.093 45.196 235.137 45.424 234.910 C 45.651 234.682 46.144 233.274 46.519 231.780 C 47.123 229.374 46.789 228.867 43.600 227.347 C 41.620 226.402 40.020 225.375 40.044 225.065 C 40.068 224.754 40.647 221.810 41.330 218.522 C 42.526 212.773 42.722 212.502 46.460 211.453 C 49.846 210.503 51.662 208.610 51.930 205.750 C 52.040 204.571 46.665 205.019 30.663 207.521 M 36.337 216.250 C 35.256 221.991 34.893 222.124 29.242 218.861 C 26.359 217.197 24.000 215.449 24.000 214.978 C 24.000 214.188 27.375 213.591 34.225 213.168 C 36.780 213.010 36.912 213.202 36.337 216.250 "/></g>
<g fill="#050600FF" stroke="#050600FF">
<path d="M 252.750 31.758 C 250.160 33.364 250.000 33.885 250.000 40.706 C 250.000 47.715 250.095 47.998 252.950 49.474 C 254.641 50.349 258.483 51.000 261.950 51.000 L 268.000 51.000 268.000 55.500 L 268.000 60.000 262.000 60.000 C 256.667 60.000 256.000 59.778 256.000 58.000 C 256.000 56.444 255.333 56.000 253.000 56.000 C 250.242 56.000 250.000 56.281 250.000 59.474 C 250.000 62.310 250.542 63.229 252.950 64.474 C 256.878 66.505 266.048 66.422 270.466 64.315 L 274.000 62.630 274.000 55.437 C 274.000 46.524 273.151 45.672 263.601 45.000 L 256.500 44.500 256.193 40.250 L 255.885 36.000 261.443 36.000 C 265.716 36.000 267.000 36.347 267.000 37.500 C 267.000 38.533 268.036 39.000 270.327 39.000 C 273.461 39.000 273.628 38.825 273.210 35.975 C 272.965 34.311 271.818 32.286 270.660 31.475 C 267.655 29.370 256.312 29.550 252.750 31.758 "/></g>
<g fill="#050600FF" stroke="#050600FF">
<path d="M 476.000 201.387 C 470.691 203.511 470.490 203.730 470.197 207.699 C 470.031 209.961 470.593 213.484 471.447 215.528 C 472.301 217.572 473.000 219.633 473.000 220.109 C 473.000 220.887 466.690 224.000 465.113 224.000 C 464.759 224.000 463.656 221.711 462.663 218.913 C 460.930 214.035 460.929 213.772 462.638 212.522 C 464.143 211.423 464.238 210.818 463.249 208.648 C 462.192 206.328 461.791 206.177 459.143 207.100 C 456.913 207.877 456.094 208.888 455.730 211.311 C 455.083 215.626 459.391 226.978 462.557 229.301 C 464.938 231.048 465.199 231.035 471.105 228.881 C 478.668 226.124 479.963 223.947 478.064 217.185 C 475.505 208.071 475.468 208.331 479.496 207.001 C 483.704 205.613 484.279 206.003 486.012 211.417 C 487.105 214.834 487.054 215.487 485.610 216.543 C 484.297 217.503 484.161 218.294 484.953 220.376 C 486.084 223.351 486.017 223.324 489.294 222.078 C 492.784 220.751 493.356 216.349 490.949 209.351 C 488.810 203.136 485.593 198.944 483.076 199.093 C 482.209 199.145 479.025 200.177 476.000 201.387 "/></g>
<g fill="#050600FF" stroke="#050600FF">
<path d="M 355.616 71.201 L 348.909 85.401 350.802 87.951 C 353.344 91.373 364.585 96.854 369.230 96.935 C 373.449 97.009 372.953 97.727 381.946 78.517 L 386.876 67.987 383.958 66.478 C 381.083 64.991 381.019 65.017 379.623 68.235 C 374.780 79.397 368.835 91.000 367.959 91.000 C 367.134 91.000 357.224 86.380 356.241 85.537 C 356.098 85.415 358.719 79.525 362.064 72.447 C 367.720 60.480 368.022 59.489 366.382 58.290 C 365.411 57.580 364.101 57.000 363.470 57.000 C 362.839 57.000 359.304 63.390 355.616 71.201 "/></g>
<g fill="#050600FF" stroke="#050600FF">
<path d="M 137.813 59.326 L 129.127 64.644 137.813 79.296 C 142.591 87.355 146.822 93.961 147.215 93.975 C 148.251 94.011 162.855 85.044 163.526 83.958 C 163.838 83.454 163.615 82.150 163.032 81.060 C 162.007 79.144 161.779 79.194 156.236 82.536 C 153.081 84.438 150.245 85.996 149.934 85.997 C 149.623 85.999 148.359 84.205 147.126 82.010 L 144.884 78.021 149.442 75.268 C 154.510 72.206 154.494 72.236 152.544 69.663 C 151.210 67.902 150.962 67.938 146.527 70.537 C 142.055 73.158 141.854 73.186 140.478 71.374 C 138.952 69.367 137.597 66.001 138.159 65.614 C 138.346 65.485 140.863 63.897 143.750 62.085 C 149.434 58.519 149.621 58.221 147.750 55.695 C 146.614 54.162 145.708 54.493 137.813 59.326 "/></g>
<g fill="#050600FF" stroke="#050600FF">
<path d="M 34.168 160.531 C 33.526 161.941 33.000 163.266 33.000 163.477 C 33.000 163.687 37.814 168.053 43.697 173.180 L 54.394 182.500 40.232 182.125 L 26.071 181.750 24.873 184.379 C 24.214 185.825 23.871 187.204 24.110 187.444 C 24.350 187.683 32.518 188.198 42.261 188.589 L 59.977 189.299 61.547 185.541 C 62.411 183.475 62.978 181.698 62.809 181.593 C 62.492 181.398 41.168 163.092 37.418 159.797 C 35.382 158.007 35.310 158.024 34.168 160.531 "/></g>
<g fill="#7F1800FF" stroke="#7F1800FF">
<path d="M 181.357 195.513 C 180.699 197.226 182.629 227.116 184.035 237.000 C 184.544 240.575 184.969 243.990 184.980 244.589 C 184.991 245.189 186.125 246.192 187.500 246.818 L 190.000 247.957 190.000 222.447 C 190.000 199.025 189.857 196.893 188.250 196.396 C 187.288 196.098 185.719 195.437 184.764 194.927 C 182.427 193.679 182.034 193.747 181.357 195.513 "/></g>
<g fill="#050600FF" stroke="#050600FF">
<path d="M 396.291 80.906 C 395.256 82.563 395.549 83.117 398.544 85.156 C 400.437 86.445 401.989 88.009 401.993 88.631 C 401.997 89.253 398.335 94.827 393.855 101.017 L 385.710 112.273 388.077 114.058 C 389.379 115.040 390.772 115.641 391.174 115.393 C 391.575 115.145 395.392 110.005 399.655 103.971 C 403.919 97.937 407.878 93.010 408.454 93.022 C 409.029 93.034 410.625 93.924 412.000 95.000 C 415.156 97.468 416.218 97.481 417.725 95.069 C 418.818 93.319 418.005 92.478 409.029 86.069 C 403.583 82.181 398.757 79.000 398.304 79.000 C 397.851 79.000 396.946 79.858 396.291 80.906 "/></g>
<g fill="#050600FF" stroke="#050600FF">
<path d="M 161.721 48.221 C 160.109 49.405 160.480 50.668 166.720 65.244 C 174.308 82.967 172.685 81.852 183.695 76.913 C 189.845 74.153 190.855 72.897 189.122 70.163 C 188.436 69.080 187.293 69.249 183.107 71.049 C 180.265 72.272 177.639 72.973 177.273 72.607 C 176.907 72.240 174.257 66.442 171.385 59.720 C 168.512 52.999 165.554 47.374 164.812 47.221 C 164.069 47.068 162.678 47.518 161.721 48.221 "/></g>
<g fill="#050600FF" stroke="#050600FF">
<path d="M 329.083 60.251 C 326.287 68.639 324.000 76.027 324.000 76.669 C 324.000 78.353 339.909 83.491 341.182 82.218 C 343.178 80.222 341.522 77.724 337.394 76.507 C 335.136 75.841 332.808 75.000 332.222 74.637 C 331.522 74.205 332.716 69.314 335.704 60.376 C 339.407 49.297 339.996 46.611 338.875 45.902 C 335.093 43.506 334.255 44.734 329.083 60.251 "/></g>
<g fill="#050600FF" stroke="#050600FF">
<path d="M 238.750 261.637 L 236.000 265.608 236.000 286.336 C 236.000 306.917 236.016 307.070 238.250 307.902 C 240.433 308.714 240.523 308.497 241.271 300.620 C 241.695 296.154 241.920 284.662 241.771 275.083 L 241.500 257.666 238.750 261.637 "/></g>
<g fill="#7F1800FF" stroke="#7F1800FF">
<path d="M 320.233 196.041 L 317.966 196.948 318.233 222.224 C 318.465 244.209 318.673 247.109 319.826 244.500 C 322.765 237.855 325.892 196.062 323.500 195.408 C 322.950 195.257 321.480 195.542 320.233 196.041 "/></g>
<g fill="#050600FF" stroke="#050600FF">
<path d="M 266.198 283.499 C 266.455 296.424 266.932 307.265 267.257 307.591 C 267.583 307.916 268.783 307.886 269.925 307.524 C 271.933 306.887 272.000 306.225 272.000 287.165 C 272.000 267.724 271.967 267.415 269.464 263.732 C 268.069 261.679 266.659 260.000 266.330 260.000 C 266.001 260.000 265.941 270.575 266.198 283.499 "/></g>
<g fill="#050600FF" stroke="#050600FF">
<path d="M 418.457 113.250 C 402.965 129.165 403.356 128.631 405.484 130.983 C 406.488 132.092 407.595 133.000 407.943 133.000 C 408.291 133.000 413.898 127.355 420.403 120.456 C 431.901 108.260 432.181 107.857 430.460 105.956 C 429.486 104.880 428.413 104.000 428.075 104.000 C 427.737 104.000 423.409 108.163 418.457 113.250 "/></g>
<g fill="#7F1800FF" stroke="#7F1800FF">
<path d="M 310.667 198.667 C 310.300 199.033 310.000 210.958 310.000 225.167 C 310.000 247.463 310.205 251.000 311.500 251.000 C 312.796 251.000 313.000 247.389 313.000 224.500 C 313.000 200.308 312.671 196.663 310.667 198.667 "/></g>
<g fill="#A5A5A4FF" stroke="#A5A5A4FF">
<path d="M 240.145 237.006 C 234.011 239.629 229.186 244.969 234.114 243.680 C 236.163 243.145 236.155 243.210 233.864 245.761 C 232.272 247.535 232.885 247.240 235.742 244.858 C 245.828 236.450 260.894 237.070 270.991 246.307 C 273.241 248.366 273.682 248.586 272.231 246.926 C 269.867 244.220 270.116 242.723 272.762 243.739 C 276.366 245.122 272.551 241.805 267.679 239.320 C 263.316 237.094 260.925 236.624 252.500 236.339 C 247.000 236.152 241.440 236.452 240.145 237.006 "/></g>
<g fill="#A5A5A4FF" stroke="#A5A5A4FF">
<path d="M 177.711 216.000 C 178.201 232.714 179.402 242.012 181.214 243.132 C 183.745 244.697 183.957 242.162 182.481 227.958 C 180.848 212.253 180.500 210.573 179.058 211.464 C 178.512 211.801 177.926 209.789 177.693 206.778 C 177.469 203.875 177.477 208.025 177.711 216.000 "/></g>
<g fill="#A5A5A4FF" stroke="#A5A5A4FF">
<path d="M 324.551 218.750 C 324.162 223.013 323.266 230.325 322.561 235.000 C 321.855 239.675 321.376 243.623 321.496 243.774 C 321.616 243.924 322.389 243.788 323.214 243.471 C 325.521 242.586 326.793 236.663 327.558 223.250 C 328.159 212.719 328.047 211.000 326.758 211.000 C 325.615 211.000 325.090 212.844 324.551 218.750 "/></g>
<g fill="#050600FF" stroke="#050600FF">
<path d="M 230.750 279.697 C 229.788 283.656 229.000 290.449 229.000 294.792 C 229.000 301.453 229.317 302.977 231.025 304.523 L 233.050 306.355 232.775 289.428 L 232.500 272.500 230.750 279.697 "/></g>
<g fill="#050600FF" stroke="#050600FF">
<path d="M 201.639 198.694 C 201.288 199.046 201.073 201.621 201.163 204.417 L 201.326 209.500 202.000 204.000 C 202.371 200.975 202.658 210.650 202.638 225.500 C 202.612 244.052 202.413 248.902 202.000 241.000 L 201.399 229.500 201.199 241.250 C 201.032 251.116 201.240 253.000 202.500 253.000 C 203.796 253.000 204.000 249.340 204.000 226.059 C 204.000 201.615 203.581 196.753 201.639 198.694 "/></g>
<g fill="#050600FF" stroke="#050600FF">
<path d="M 275.086 290.872 C 275.007 304.056 275.135 305.133 276.632 303.891 C 278.018 302.740 278.177 301.032 277.685 292.518 C 276.693 275.361 275.184 274.405 275.086 290.872 "/></g>
<g fill="#050600FF" stroke="#050600FF">
<path d="M 289.452 202.264 C 289.185 202.959 289.094 215.897 289.250 231.014 L 289.534 258.500 289.767 230.320 L 290.000 202.139 292.250 201.706 L 294.500 201.272 292.219 201.136 C 290.964 201.061 289.719 201.569 289.452 202.264 "/></g>
<g fill="#A5A5A4FF" stroke="#A5A5A4FF">
<path d="M 286.649 331.989 C 272.432 336.873 260.507 341.194 260.149 341.593 C 259.792 341.992 260.175 342.090 261.000 341.811 C 294.856 330.345 314.138 323.558 313.416 323.361 C 312.912 323.223 300.867 327.106 286.649 331.989 "/></g>
<g fill="#848484FF" stroke="#848484FF">
<path d="M 252.505 267.250 C 252.117 275.638 252.003 283.850 252.250 285.500 C 252.498 287.150 252.768 283.888 252.850 278.250 C 252.939 272.183 253.408 268.000 254.000 268.000 C 254.583 268.000 255.000 264.667 255.000 260.000 C 255.000 246.190 253.243 251.295 252.505 267.250 "/></g>
<g fill="#050600FF" stroke="#050600FF">
<path d="M 305.999 232.251 C 305.725 244.214 305.846 254.001 306.270 254.001 C 306.693 254.000 306.917 244.213 306.769 232.250 L 306.498 210.500 305.999 232.251 "/></g>
<g fill="#848484FF" stroke="#848484FF">
<path d="M 242.750 256.578 C 241.623 257.714 241.848 268.000 243.000 268.000 C 243.588 268.000 244.084 272.219 244.204 278.250 C 244.399 288.085 244.420 288.176 244.732 280.500 C 245.114 271.065 243.825 255.495 242.750 256.578 "/></g>
<g fill="#848484FF" stroke="#848484FF">
<path d="M 263.500 271.346 C 263.500 279.681 263.613 282.338 263.750 277.250 C 263.888 272.163 264.405 268.000 264.899 268.000 C 266.536 268.000 266.620 259.461 265.000 257.763 C 263.664 256.363 263.500 257.844 263.500 271.346 "/></g>
<g fill="#050600FF" stroke="#050600FF">
<path d="M 317.207 229.809 C 317.093 240.429 317.338 248.910 317.750 248.657 C 318.163 248.403 318.255 239.714 317.957 229.348 L 317.413 210.500 317.207 229.809 "/></g>
<g fill="#A5A5A4FF" stroke="#A5A5A4FF">
<path d="M 386.603 291.000 C 386.915 292.925 387.518 295.625 387.941 297.000 C 388.364 298.375 388.629 300.963 388.530 302.750 C 388.431 304.538 388.271 305.455 388.175 304.789 C 388.079 304.122 387.151 305.242 386.113 307.277 C 385.076 309.313 384.626 310.731 385.113 310.430 C 385.601 310.129 386.000 310.459 386.000 311.163 C 386.000 311.868 386.753 311.370 387.673 310.057 C 388.593 308.743 388.818 307.994 388.173 308.393 C 386.330 309.532 386.803 307.864 388.721 306.462 C 390.280 305.322 390.326 304.526 389.204 297.982 C 388.523 294.010 387.531 290.027 387.000 289.130 C 386.307 287.961 386.195 288.490 386.603 291.000 "/></g>
<g fill="#A5A5A4FF" stroke="#A5A5A4FF">
<path d="M 233.500 353.562 C 219.758 358.250 214.815 360.148 215.241 360.574 C 215.441 360.774 222.555 358.499 231.052 355.520 C 239.548 352.541 245.825 350.114 245.000 350.128 C 244.175 350.141 239.000 351.687 233.500 353.562 "/></g>
<g fill="#A5A5A4FF" stroke="#A5A5A4FF">
<path d="M 383.340 291.823 C 383.292 292.746 383.129 296.290 382.978 299.701 C 382.827 303.111 382.268 305.811 381.735 305.701 C 381.202 305.590 380.638 306.256 380.481 307.181 C 380.094 309.474 382.744 308.382 383.523 305.928 C 384.412 303.127 384.860 291.031 384.092 290.557 C 383.727 290.331 383.389 290.901 383.340 291.823 "/></g>
<g fill="#A5A5A4FF" stroke="#A5A5A4FF">
<path d="M 325.612 320.181 C 326.083 320.944 325.785 321.132 324.740 320.730 C 322.464 319.857 319.979 324.137 320.102 328.715 C 320.205 332.497 320.205 332.497 321.022 329.500 C 322.548 323.901 323.828 320.495 323.914 321.807 C 323.982 322.846 324.419 322.820 326.045 321.681 C 327.812 320.444 327.873 320.165 326.493 319.636 C 325.440 319.232 325.140 319.417 325.612 320.181 "/></g>
<g fill="#A5A5A4FF" stroke="#A5A5A4FF">
<path d="M 363.500 318.052 C 362.400 318.556 360.150 319.519 358.500 320.193 C 355.832 321.282 356.053 321.323 360.500 320.563 C 363.250 320.093 366.043 319.285 366.706 318.768 C 367.370 318.251 368.452 318.161 369.111 318.568 C 369.869 319.037 370.047 318.885 369.595 318.155 C 368.760 316.802 366.317 316.761 363.500 318.052 "/></g>
<g fill="#A5A5A4FF" stroke="#A5A5A4FF">
<path d="M 355.000 316.000 C 348.770 318.043 350.378 318.541 357.958 316.916 C 360.739 316.319 362.759 315.419 362.448 314.916 C 361.751 313.787 361.743 313.788 355.000 316.000 "/></g>
<g fill="#A5A5A4FF" stroke="#A5A5A4FF">
<path d="M 376.000 310.096 C 377.143 310.908 376.786 311.016 374.500 310.551 C 372.148 310.071 371.824 310.180 373.000 311.056 C 374.225 311.969 374.088 312.083 372.249 311.680 C 370.913 311.387 370.246 311.589 370.608 312.175 C 370.962 312.748 370.228 313.024 368.859 312.831 C 367.347 312.619 366.957 312.795 367.772 313.323 C 368.502 313.794 371.220 313.423 374.139 312.454 C 377.755 311.253 378.836 310.511 377.866 309.896 C 375.896 308.648 374.214 308.828 376.000 310.096 "/></g>
<g fill="#A5A5A4FF" stroke="#A5A5A4FF">
<path d="M 315.750 322.608 C 315.338 323.007 315.000 324.076 315.000 324.984 C 315.000 326.111 313.228 327.193 309.412 328.396 C 306.339 329.365 304.012 330.346 304.242 330.576 C 304.472 330.806 307.097 330.165 310.076 329.153 C 314.551 327.632 315.579 326.841 315.996 324.597 C 316.273 323.104 316.163 322.208 315.750 322.608 "/></g>
<g fill="#A5A5A4FF" stroke="#A5A5A4FF">
<path d="M 211.729 358.844 C 208.005 360.190 205.119 361.452 205.315 361.648 C 205.834 362.167 217.356 358.095 217.976 357.174 C 218.264 356.746 215.453 357.498 211.729 358.844 "/></g>
<g fill="#A5A5A4FF" stroke="#A5A5A4FF">
<path d="M 23.652 188.250 C 23.908 188.663 27.354 188.925 31.309 188.834 L 38.500 188.669 30.843 188.084 C 26.631 187.763 23.395 187.838 23.652 188.250 "/></g>
<g fill="#A5A5A4FF" stroke="#A5A5A4FF">
<path d="M 80.157 141.916 C 84.369 142.237 87.605 142.163 87.348 141.750 C 87.092 141.338 83.646 141.075 79.691 141.166 L 72.500 141.331 80.157 141.916 "/></g>
<g fill="#A5A5A4FF" stroke="#A5A5A4FF">
<path d="M 196.663 365.437 C 196.359 366.227 196.866 368.794 197.788 371.142 C 199.313 375.023 199.483 375.165 199.672 372.705 C 199.787 371.217 199.505 370.000 199.047 370.000 C 197.579 370.000 196.926 366.794 198.105 365.373 C 198.809 364.525 198.856 364.000 198.229 364.000 C 197.671 364.000 196.966 364.647 196.663 365.437 "/></g>
<g fill="#A5A5A4FF" stroke="#A5A5A4FF">
<path d="M 372.382 251.552 C 372.723 252.442 372.555 252.843 371.989 252.493 C 371.445 252.157 371.000 252.782 371.000 253.882 C 371.000 254.982 371.445 256.157 371.989 256.493 C 372.555 256.843 372.723 256.442 372.382 255.552 C 372.054 254.698 372.284 254.000 372.893 254.000 C 373.502 254.000 374.000 253.100 374.000 252.000 C 374.000 250.900 373.502 250.000 372.893 250.000 C 372.284 250.000 372.054 250.698 372.382 251.552 "/></g>
<g fill="#A5A5A4FF" stroke="#A5A5A4FF">
<path d="M 422.500 108.457 L 417.500 113.554 422.500 108.457 L 427.500 103.361 422.500 108.457 "/></g>
<g fill="#848484FF" stroke="#848484FF">
<path d="M 266.147 302.691 C 266.066 305.546 266.339 308.092 266.754 308.348 C 267.169 308.605 267.235 306.269 266.901 303.157 L 266.294 297.500 266.147 302.691 "/></g>
<g fill="#A5A5A4FF" stroke="#A5A5A4FF">
<path d="M 332.650 319.683 C 332.274 320.059 333.405 320.971 335.163 321.711 C 338.339 323.046 338.348 323.042 336.525 321.027 C 334.574 318.871 333.748 318.585 332.650 319.683 "/></g>
<g fill="#A5A5A4FF" stroke="#A5A5A4FF">
<path d="M 379.105 315.169 C 377.788 315.649 375.763 315.787 374.605 315.474 C 372.777 314.979 372.725 315.046 374.212 315.981 C 375.935 317.064 380.897 316.396 381.289 315.029 C 381.405 314.625 380.422 314.688 379.105 315.169 "/></g>
<g fill="#A5A5A4FF" stroke="#A5A5A4FF">
<path d="M 374.545 264.927 C 373.658 266.362 374.761 268.000 376.616 268.000 C 377.931 268.000 377.937 267.748 376.661 265.927 C 375.753 264.630 374.960 264.255 374.545 264.927 "/></g>
<g fill="#A5A5A4FF" stroke="#A5A5A4FF">
<path d="M 427.500 113.449 L 423.500 117.559 427.500 113.449 L 431.500 109.338 427.500 113.449 "/></g>
<g fill="#A5A5A4FF" stroke="#A5A5A4FF">
<path d="M 285.565 358.895 C 285.260 359.388 285.707 360.057 286.558 360.384 C 287.408 360.710 287.850 360.566 287.540 360.064 C 287.229 359.562 287.769 358.945 288.738 358.692 C 290.113 358.333 290.019 358.207 288.309 358.116 C 287.104 358.052 285.869 358.403 285.565 358.895 "/></g>
<g fill="#A5A5A4FF" stroke="#A5A5A4FF">
<path d="M 185.079 327.000 C 185.045 329.428 185.304 330.068 185.924 329.089 C 186.424 328.300 186.445 326.759 185.972 325.589 C 185.270 323.853 185.119 324.091 185.079 327.000 "/></g>
<g fill="#A5A5A4FF" stroke="#A5A5A4FF">
<path d="M 328.629 319.474 C 329.127 320.773 329.369 320.773 330.669 319.474 C 331.968 318.175 331.900 318.000 330.103 318.000 C 328.716 318.000 328.244 318.472 328.629 319.474 "/></g>
<g fill="#A5A5A4FF" stroke="#A5A5A4FF">
<path d="M 369.032 231.206 C 369.014 232.145 369.686 233.045 370.524 233.206 C 371.880 233.468 371.883 233.279 370.556 231.500 C 369.259 229.762 369.059 229.724 369.032 231.206 "/></g>
<g fill="#848484FF" stroke="#848484FF">
<path d="M 420.000 120.924 L 417.500 123.566 420.000 120.924 L 422.500 118.282 420.000 120.924 "/></g>
<g fill="#848484FF" stroke="#848484FF">
<path d="M 273.028 35.272 C 273.751 38.312 273.801 38.343 273.898 35.809 C 273.954 34.329 273.609 32.876 273.131 32.581 C 272.648 32.282 272.602 33.479 273.028 35.272 "/></g>
</svg>
