<?xml version="1.0" encoding="UTF-8"?>
<!DOCTYPE svg PUBLIC "-//W3C//DTD SVG 1.1//EN" "http://www.w3.org/Graphics/SVG/1.1/DTD/svg11.dtd">
<svg xmlns="http://www.w3.org/2000/svg" version="1.1" width="512px" height="512px" style="shape-rendering:geometricPrecision; text-rendering:geometricPrecision; image-rendering:optimizeQuality; fill-rule:evenodd; clip-rule:evenodd" xmlns:xlink="http://www.w3.org/1999/xlink">
<g><path style="opacity:0.949" fill="#ce9233" d="M 64.5,-0.5 C 69.1667,-0.5 73.8333,-0.5 78.5,-0.5C 84.4802,1.98203 88.6469,6.31536 91,12.5C 91.5,66.8323 91.6667,121.166 91.5,175.5C 94.1667,175.5 96.8333,175.5 99.5,175.5C 99.3334,154.831 99.5,134.164 100,113.5C 104.778,95.0552 116.445,83.7219 135,79.5C 135.034,65.4064 135.701,51.4064 137,37.5C 138.648,36.283 140.481,35.4497 142.5,35C 149.833,34.6667 157.167,34.3333 164.5,34C 172.267,17.4506 184.934,11.7839 202.5,17C 210.255,20.4206 215.588,26.0872 218.5,34C 225.833,34.3333 233.167,34.6667 240.5,35C 242.519,35.4497 244.352,36.283 246,37.5C 247.299,51.4064 247.966,65.4064 248,79.5C 266.555,83.7219 278.222,95.0552 283,113.5C 284.371,134.139 284.871,154.805 284.5,175.5C 286.833,175.5 289.167,175.5 291.5,175.5C 291.333,121.166 291.5,66.8323 292,12.5C 294.353,6.31536 298.52,1.98203 304.5,-0.5C 309.167,-0.5 313.833,-0.5 318.5,-0.5C 326.412,3.29599 330.912,9.62932 332,18.5C 332.5,120.833 332.667,223.166 332.5,325.5C 348.489,322.356 359.989,313.356 367,298.5C 368.202,295.226 369.202,291.893 370,288.5C 370.5,269.836 370.667,251.17 370.5,232.5C 363.827,232.933 359.994,229.933 359,223.5C 358.333,196.833 358.333,170.167 359,143.5C 359.878,136.798 363.712,134.131 370.5,135.5C 370.333,124.828 370.5,114.161 371,103.5C 372.17,84.165 382.337,73.4983 401.5,71.5C 410.108,71.0171 413.275,75.0171 411,83.5C 410.5,85.3333 409.333,86.5 407.5,87C 398.958,87.1797 392.791,91.0131 389,98.5C 387.606,110.78 387.106,123.114 387.5,135.5C 390.187,135.336 392.854,135.503 395.5,136C 397.333,136.5 398.5,137.667 399,139.5C 399.667,168.833 399.667,198.167 399,227.5C 396.161,231.178 392.327,232.845 387.5,232.5C 387.667,251.836 387.5,271.17 387,290.5C 380.601,319.733 362.767,337.4 333.5,343.5C 332.167,357.833 332.167,372.167 333.5,386.5C 350.159,379.891 363.992,383.558 375,397.5C 377.881,402.81 379.548,408.477 380,414.5C 380.667,436.5 380.667,458.5 380,480.5C 378.478,496.265 370.311,506.598 355.5,511.5C 350.167,511.5 344.833,511.5 339.5,511.5C 324.561,506.653 316.561,496.32 315.5,480.5C 232.833,480.5 150.167,480.5 67.5,480.5C 66.4353,496.332 58.4353,506.666 43.5,511.5C 38.1667,511.5 32.8333,511.5 27.5,511.5C 12.3917,506.335 4.22504,495.669 3,479.5C 2.33333,458.167 2.33333,436.833 3,415.5C 4.37749,395.456 15.0442,384.789 35,383.5C 40.1259,383.162 44.9592,384.162 49.5,386.5C 50.3333,264.168 50.8333,141.835 51,19.5C 51.7949,10.2199 56.2949,3.55326 64.5,-0.5 Z M 69.5,16.5 C 71.1439,16.2865 72.6439,16.6198 74,17.5C 74.5,155.5 74.6667,293.5 74.5,431.5C 72.1667,431.5 69.8333,431.5 67.5,431.5C 67.3333,294.166 67.5,156.833 68,19.5C 68.5133,18.4734 69.0133,17.4734 69.5,16.5 Z M 309.5,16.5 C 312.238,15.9648 314.072,16.9648 315,19.5C 315.5,156.833 315.667,294.166 315.5,431.5C 313.167,431.5 310.833,431.5 308.5,431.5C 308.168,293.097 308.502,154.763 309.5,16.5 Z M 187.5,32.5 C 198.318,31.8169 203.151,36.8169 202,47.5C 198.96,53.6026 194.126,55.7693 187.5,54C 181.397,50.9596 179.231,46.1263 181,39.5C 182.694,36.6424 184.861,34.309 187.5,32.5 Z M 152.5,51.5 C 156.555,51.1758 160.555,51.5091 164.5,52.5C 171.892,69.3584 184.559,75.1917 202.5,70C 210.455,66.5455 215.789,60.7121 218.5,52.5C 222.783,51.5078 227.116,51.1744 231.5,51.5C 231.666,60.8393 231.5,70.1726 231,79.5C 212.445,83.7219 200.778,95.0552 196,113.5C 195.5,134.164 195.333,154.831 195.5,175.5C 192.833,175.5 190.167,175.5 187.5,175.5C 187.175,157.923 187.508,140.423 188.5,123C 187.106,104.865 178.439,91.532 162.5,83C 159.28,81.6476 155.947,80.8143 152.5,80.5C 152.5,70.8333 152.5,61.1667 152.5,51.5 Z M 142.5,95.5 C 156.449,96.2863 165.615,103.286 170,116.5C 170.5,221.499 170.667,326.499 170.5,431.5C 152.167,431.5 133.833,431.5 115.5,431.5C 115.333,328.833 115.5,226.166 116,123.5C 117.883,107.453 126.717,98.1195 142.5,95.5 Z M 238.5,95.5 C 255.453,97.2863 264.953,106.62 267,123.5C 267.5,226.166 267.667,328.833 267.5,431.5C 248.833,431.5 230.167,431.5 211.5,431.5C 211.333,328.833 211.5,226.166 212,123.5C 213.883,107.453 222.717,98.1195 238.5,95.5 Z M 375.5,152.5 C 377.833,152.5 380.167,152.5 382.5,152.5C 382.5,173.5 382.5,194.5 382.5,215.5C 380.167,215.5 377.833,215.5 375.5,215.5C 375.5,194.5 375.5,173.5 375.5,152.5 Z M 91.5,192.5 C 94.1667,192.5 96.8333,192.5 99.5,192.5C 99.5,194.833 99.5,197.167 99.5,199.5C 96.8333,199.5 94.1667,199.5 91.5,199.5C 91.5,197.167 91.5,194.833 91.5,192.5 Z M 187.5,192.5 C 190.167,192.5 192.833,192.5 195.5,192.5C 195.5,194.833 195.5,197.167 195.5,199.5C 192.833,199.5 190.167,199.5 187.5,199.5C 187.5,197.167 187.5,194.833 187.5,192.5 Z M 284.5,192.5 C 286.833,192.5 289.167,192.5 291.5,192.5C 291.5,194.833 291.5,197.167 291.5,199.5C 289.167,199.5 286.833,199.5 284.5,199.5C 284.5,197.167 284.5,194.833 284.5,192.5 Z M 91.5,216.5 C 94.1667,216.5 96.8333,216.5 99.5,216.5C 99.5,245.5 99.5,274.5 99.5,303.5C 96.8333,303.5 94.1667,303.5 91.5,303.5C 91.5,274.5 91.5,245.5 91.5,216.5 Z M 187.5,216.5 C 190.167,216.5 192.833,216.5 195.5,216.5C 195.5,245.5 195.5,274.5 195.5,303.5C 192.833,303.5 190.167,303.5 187.5,303.5C 187.5,274.5 187.5,245.5 187.5,216.5 Z M 284.5,216.5 C 286.833,216.5 289.167,216.5 291.5,216.5C 291.5,245.5 291.5,274.5 291.5,303.5C 289.167,303.5 286.833,303.5 284.5,303.5C 284.5,274.5 284.5,245.5 284.5,216.5 Z M 91.5,320.5 C 94.1667,320.5 96.8333,320.5 99.5,320.5C 99.5,322.833 99.5,325.167 99.5,327.5C 96.8333,327.5 94.1667,327.5 91.5,327.5C 91.5,325.167 91.5,322.833 91.5,320.5 Z M 187.5,320.5 C 190.167,320.5 192.833,320.5 195.5,320.5C 195.5,322.833 195.5,325.167 195.5,327.5C 192.833,327.5 190.167,327.5 187.5,327.5C 187.5,325.167 187.5,322.833 187.5,320.5 Z M 284.5,320.5 C 286.833,320.5 289.167,320.5 291.5,320.5C 291.5,322.833 291.5,325.167 291.5,327.5C 289.167,327.5 286.833,327.5 284.5,327.5C 284.5,325.167 284.5,322.833 284.5,320.5 Z M 91.5,344.5 C 94.1667,344.5 96.8333,344.5 99.5,344.5C 99.5,373.5 99.5,402.5 99.5,431.5C 96.8333,431.5 94.1667,431.5 91.5,431.5C 91.5,402.5 91.5,373.5 91.5,344.5 Z M 187.5,344.5 C 190.167,344.5 192.833,344.5 195.5,344.5C 195.5,373.5 195.5,402.5 195.5,431.5C 192.833,431.5 190.167,431.5 187.5,431.5C 187.5,402.5 187.5,373.5 187.5,344.5 Z M 284.5,344.5 C 286.833,344.5 289.167,344.5 291.5,344.5C 291.5,373.5 291.5,402.5 291.5,431.5C 289.167,431.5 286.833,431.5 284.5,431.5C 284.5,402.5 284.5,373.5 284.5,344.5 Z M 30.5,400.5 C 39.5867,398.959 46.0867,402.293 50,410.5C 50.6667,435.167 50.6667,459.833 50,484.5C 44.5491,494.817 36.7157,497.317 26.5,492C 22.618,488.736 20.4513,484.57 20,479.5C 19.3333,458.167 19.3333,436.833 20,415.5C 20.6261,408.391 24.1261,403.391 30.5,400.5 Z M 342.5,400.5 C 353.726,398.856 360.559,403.522 363,414.5C 363.667,436.5 363.667,458.5 363,480.5C 361.293,489.04 356.126,494.04 347.5,495.5C 340.528,494.603 335.694,490.936 333,484.5C 332.333,459.833 332.333,435.167 333,410.5C 335.022,405.98 338.189,402.647 342.5,400.5 Z M 67.5,448.5 C 150.167,448.5 232.833,448.5 315.5,448.5C 315.5,453.5 315.5,458.5 315.5,463.5C 232.833,463.5 150.167,463.5 67.5,463.5C 67.5,458.5 67.5,453.5 67.5,448.5 Z"/></g>
<g><path style="opacity:0.937" fill="#ce9233" d="M 436.5,55.5 C 457.174,55.2233 477.174,58.7233 496.5,66C 509.435,72.8113 510.768,81.1446 500.5,91C 493.462,94.4574 486.128,97.1241 478.5,99C 466.903,101.407 455.236,103.241 443.5,104.5C 421.4,99.6356 414.566,86.6356 423,65.5C 426.579,60.7307 431.079,57.3974 436.5,55.5 Z M 440.5,72.5 C 454.867,72.6723 468.867,75.0056 482.5,79.5C 469.909,83.3848 457.076,86.0514 444,87.5C 437.879,86.2606 435.546,82.5939 437,76.5C 437.69,74.6498 438.856,73.3164 440.5,72.5 Z"/></g>
</svg>
