<?xml version="1.0" encoding="UTF-8"?>
<!DOCTYPE svg PUBLIC "-//W3C//DTD SVG 1.1//EN" "http://www.w3.org/Graphics/SVG/1.1/DTD/svg11.dtd">
<svg xmlns="http://www.w3.org/2000/svg" version="1.1" width="512px" height="512px" style="shape-rendering:geometricPrecision; text-rendering:geometricPrecision; image-rendering:optimizeQuality; fill-rule:evenodd; clip-rule:evenodd" xmlns:xlink="http://www.w3.org/1999/xlink">
<g><path style="opacity:0.917" fill="#ce9233" d="M -0.5,475.5 C -0.5,450.5 -0.5,425.5 -0.5,400.5C 10.9284,345.24 44.5951,313.407 100.5,305C 116.497,304.5 132.497,304.333 148.5,304.5C 148.666,294.828 148.5,285.161 148,275.5C 121.546,261.284 105.879,239.284 101,209.5C 100.5,198.839 100.333,188.172 100.5,177.5C 78.1997,171.913 70.033,157.913 76,135.5C 80.724,124.729 88.8906,118.729 100.5,117.5C 100.334,107.494 100.5,97.4944 101,87.5C 103.482,81.344 107.982,77.6773 114.5,76.5C 118.584,51.9156 132.918,37.4156 157.5,33C 182.167,32.3333 206.833,32.3333 231.5,33C 256.056,37.3896 270.39,51.8896 274.5,76.5C 281.383,77.1973 285.883,80.864 288,87.5C 288.5,97.4944 288.666,107.494 288.5,117.5C 305.142,120.481 314.142,130.481 315.5,147.5C 314.188,164.476 305.188,174.476 288.5,177.5C 293.921,220.853 278.088,253.52 241,275.5C 240.5,285.161 240.334,294.828 240.5,304.5C 256.503,304.333 272.503,304.5 288.5,305C 341.858,312.357 375.025,342.19 388,394.5C 389.955,410.765 390.788,427.099 390.5,443.5C 390.333,453.5 390.167,463.5 390,473.5C 389.417,475.002 388.584,476.335 387.5,477.5C 259.207,478.665 130.873,478.831 2.5,478C 1.62656,476.955 0.626561,476.122 -0.5,475.5 Z M 159.5,44.5 C 184.544,44.0481 209.544,44.5481 234.5,46C 249.281,50.612 258.281,60.4454 261.5,75.5C 216.833,75.5 172.167,75.5 127.5,75.5C 131.636,58.3634 142.302,48.0301 159.5,44.5 Z M 114.5,88.5 C 167.834,88.3333 221.168,88.5 274.5,89C 275,89.5 275.5,90 276,90.5C 276.667,129.5 276.667,168.5 276,207.5C 269.692,240.142 250.525,260.975 218.5,270C 201.101,272.257 183.768,271.924 166.5,269C 136.08,258.915 118.247,238.082 113,206.5C 112.333,167.833 112.333,129.167 113,90.5C 113.717,89.9558 114.217,89.2891 114.5,88.5 Z M 98.5,129.5 C 99.8293,135.128 100.496,141.128 100.5,147.5C 100.333,153.5 100.167,159.5 100,165.5C 86.8754,159.914 83.2088,150.58 89,137.5C 91.7468,134.246 94.9135,131.58 98.5,129.5 Z M 288.5,129.5 C 301.941,134.73 305.774,144.063 300,157.5C 297.007,161.157 293.34,163.823 289,165.5C 288.5,153.505 288.333,141.505 288.5,129.5 Z M 143.5,130.5 C 177.5,130.5 211.5,130.5 245.5,130.5C 245.5,142.167 245.5,153.833 245.5,165.5C 211.5,165.5 177.5,165.5 143.5,165.5C 143.5,153.833 143.5,142.167 143.5,130.5 Z M 161.5,280.5 C 172.328,282.975 183.328,283.975 194.5,283.5C 205.99,283.958 217.323,282.958 228.5,280.5C 228.666,289.506 228.5,298.506 228,307.5C 206.278,324.447 184.278,324.78 162,308.5C 161.5,299.173 161.334,289.839 161.5,280.5 Z M 104.5,316.5 C 109.5,316.5 114.5,316.5 119.5,316.5C 119.5,342.167 119.5,367.833 119.5,393.5C 114.5,393.5 109.5,393.5 104.5,393.5C 104.5,367.833 104.5,342.167 104.5,316.5 Z M 131.5,316.5 C 138.508,316.334 145.508,316.5 152.5,317C 180.5,339 208.5,339 236.5,317C 243.492,316.5 250.492,316.334 257.5,316.5C 257.5,342.167 257.5,367.833 257.5,393.5C 215.5,393.5 173.5,393.5 131.5,393.5C 131.5,367.833 131.5,342.167 131.5,316.5 Z M 269.5,316.5 C 274.5,316.5 279.5,316.5 284.5,316.5C 284.5,342.167 284.5,367.833 284.5,393.5C 279.5,393.5 274.5,393.5 269.5,393.5C 269.5,367.833 269.5,342.167 269.5,316.5 Z M 89.5,318.5 C 90.5,318.5 91.5,318.5 92.5,318.5C 92.5,343.5 92.5,368.5 92.5,393.5C 87.1563,393.334 81.8229,393.501 76.5,394C 72.3882,395.779 69.2215,398.612 67,402.5C 65.5336,423.767 65.0336,445.1 65.5,466.5C 47.5,466.5 29.5,466.5 11.5,466.5C 11.3334,445.497 11.5,424.497 12,403.5C 20.2972,359.042 46.1306,330.708 89.5,318.5 Z M 296.5,318.5 C 331.649,326.167 356.482,346.501 371,379.5C 373.942,387.268 375.942,395.268 377,403.5C 377.5,424.497 377.667,445.497 377.5,466.5C 359.5,466.5 341.5,466.5 323.5,466.5C 323.966,445.1 323.466,423.767 322,402.5C 319.778,398.612 316.612,395.779 312.5,394C 307.177,393.501 301.844,393.334 296.5,393.5C 296.5,368.5 296.5,343.5 296.5,318.5 Z M 80.5,405.5 C 156.501,405.333 232.501,405.5 308.5,406C 309.333,406.833 310.167,407.667 311,408.5C 311.5,427.83 311.667,447.164 311.5,466.5C 233.5,466.5 155.5,466.5 77.5,466.5C 77.3334,447.164 77.5,427.83 78,408.5C 79.045,407.627 79.8783,406.627 80.5,405.5 Z"/></g>
<g><path style="opacity:0.911" fill="#ce9233" d="M 511.5,86.5 C 511.5,88.8333 511.5,91.1667 511.5,93.5C 503.18,104.497 492.513,112.33 479.5,117C 475.75,117.26 472.084,117.927 468.5,119C 451.619,126.941 434.619,134.608 417.5,142C 414.262,143.368 410.928,143.701 407.5,143C 404.104,141.552 400.937,139.719 398,137.5C 389.89,139.87 381.723,142.037 373.5,144C 371.876,145.117 370.876,146.617 370.5,148.5C 374.841,165.185 379.174,181.852 383.5,198.5C 386.141,197.737 388.808,197.57 391.5,198C 393.333,198.5 394.5,199.667 395,201.5C 405.736,241.279 416.236,281.112 426.5,321C 426.668,325.167 424.668,327.5 420.5,328C 424.456,340.822 427.789,353.822 430.5,367C 430.671,370.129 429.838,372.963 428,375.5C 425.147,377.161 422.647,379.161 420.5,381.5C 427.333,406.833 434.167,432.167 441,457.5C 442.815,463.078 443.815,468.745 444,474.5C 440.822,479.371 437.155,479.704 433,475.5C 424.517,444.901 416.351,414.234 408.5,383.5C 402.299,384.715 397.132,383.048 393,378.5C 389.025,365.935 385.358,353.268 382,340.5C 379.059,339.075 376.059,337.742 373,336.5C 361.932,296.063 351.099,255.563 340.5,215C 341.496,210.842 344.163,208.675 348.5,208.5C 344.005,190.52 339.505,172.52 335,154.5C 333.048,135.675 340.214,121.508 356.5,112C 367.664,108.209 378.997,105.043 390.5,102.5C 390.477,96.676 393.144,92.5093 398.5,90C 419.806,87.4475 441.139,85.1141 462.5,83C 479.372,76.271 495.706,77.4377 511.5,86.5 Z M 475.5,90.5 C 482.027,90.0704 488.36,90.9037 494.5,93C 489.123,99.9273 482.29,103.761 474,104.5C 473.026,100.579 471.859,96.7459 470.5,93C 472.315,92.2432 473.981,91.4098 475.5,90.5 Z M 456.5,95.5 C 457.496,95.4142 458.329,95.7476 459,96.5C 459.974,100.421 461.141,104.254 462.5,108C 445.378,115.979 428.211,123.812 411,131.5C 409.473,129.779 408.473,127.779 408,125.5C 405.845,117.547 404.011,109.547 402.5,101.5C 420.669,99.7513 438.669,97.7513 456.5,95.5 Z M 390.5,114.5 C 391.75,114.577 392.583,115.244 393,116.5C 393.606,119.43 394.44,122.263 395.5,125C 387.293,127.735 378.96,130.068 370.5,132C 360.636,135.88 356.803,143.047 359,153.5C 363.482,169.774 367.649,186.108 371.5,202.5C 367.864,203.326 364.197,203.992 360.5,204.5C 355.847,186.89 351.347,169.223 347,151.5C 346.29,139.754 350.79,130.587 360.5,124C 370.502,120.506 380.502,117.339 390.5,114.5 Z M 382.5,211.5 C 383.5,211.5 384.5,211.5 385.5,211.5C 394.133,246.865 403.466,282.031 413.5,317C 403.248,319.641 393.082,322.474 383,325.5C 373.343,290.538 363.843,255.538 354.5,220.5C 363.794,217.181 373.128,214.181 382.5,211.5 Z M 405.5,331.5 C 406.833,331.5 408.167,331.5 409.5,331.5C 412.027,343.275 415.027,354.942 418.5,366.5C 414.091,368.773 409.424,370.44 404.5,371.5C 403.029,370.619 402.196,369.286 402,367.5C 399.321,357.117 396.488,346.784 393.5,336.5C 397.333,334.444 401.333,332.778 405.5,331.5 Z"/></g>
<g><path style="opacity:0.828" fill="#ce9233" d="M 128.5,96.5 C 133.703,95.1891 137.036,97.0224 138.5,102C 134.167,110.667 129.833,110.667 125.5,102C 126.124,99.9149 127.124,98.0816 128.5,96.5 Z"/></g>
<g><path style="opacity:0.842" fill="#ce9233" d="M 253.5,96.5 C 258.703,95.1891 262.036,97.0224 263.5,102C 259.142,110.656 254.809,110.656 250.5,102C 251.223,99.9817 252.223,98.1484 253.5,96.5 Z"/></g>
<g><path style="opacity:0.912" fill="#ce9233" d="M 133.5,118.5 C 174.168,118.333 214.835,118.5 255.5,119C 256.893,120.171 257.727,121.671 258,123.5C 258.958,140.9 258.624,158.233 257,175.5C 256.25,176.126 255.416,176.626 254.5,177C 214.5,177.667 174.5,177.667 134.5,177C 132.462,175.764 131.295,173.931 131,171.5C 130.333,155.5 130.333,139.5 131,123.5C 131.366,121.548 132.199,119.882 133.5,118.5 Z M 143.5,130.5 C 143.5,142.167 143.5,153.833 143.5,165.5C 177.5,165.5 211.5,165.5 245.5,165.5C 245.5,153.833 245.5,142.167 245.5,130.5C 211.5,130.5 177.5,130.5 143.5,130.5 Z"/></g>
<g><path style="opacity:0.814" fill="#ce9233" d="M 129.5,216.5 C 137.406,216.428 139.739,219.928 136.5,227C 130.953,229.867 127.286,228.367 125.5,222.5C 125.937,219.775 127.27,217.775 129.5,216.5 Z"/></g>
<g><path style="opacity:0.794" fill="#ce9233" d="M 254.5,216.5 C 262.489,216.319 264.822,219.819 261.5,227C 255.953,229.867 252.286,228.367 250.5,222.5C 250.937,219.775 252.27,217.775 254.5,216.5 Z"/></g>
</svg>
