<?xml version="1.0" encoding="UTF-8"?>
<!DOCTYPE svg PUBLIC "-//W3C//DTD SVG 1.1//EN" "http://www.w3.org/Graphics/SVG/1.1/DTD/svg11.dtd">
<svg xmlns="http://www.w3.org/2000/svg" version="1.1" width="512px" height="512px" style="shape-rendering:geometricPrecision; text-rendering:geometricPrecision; image-rendering:optimizeQuality; fill-rule:evenodd; clip-rule:evenodd" xmlns:xlink="http://www.w3.org/1999/xlink">
<g><path style="opacity:0.909" fill="#ce9233" d="M 343.5,4.5 C 349.394,3.94333 354.727,5.44333 359.5,9C 376.34,18.5872 393.34,27.9206 410.5,37C 424.586,47.2688 428.086,60.4355 421,76.5C 411.674,89.1636 399.507,92.997 384.5,88C 381.147,86.3232 378.147,84.1566 375.5,81.5C 362.827,60.1569 350.66,38.4902 339,16.5C 337.474,11.2389 338.974,7.23886 343.5,4.5 Z M 358.5,25.5 C 358.56,24.9569 358.893,24.6236 359.5,24.5C 375.328,32.9129 390.994,41.5796 406.5,50.5C 413.34,58.6216 413.007,66.455 405.5,74C 398.576,78.8151 391.909,78.4818 385.5,73C 376.852,56.8603 367.852,41.027 358.5,25.5 Z"/></g>
<g><path style="opacity:0.924" fill="#ce9233" d="M 77.5,86.5 C 162.544,86.0107 247.544,86.5107 332.5,88C 340.849,91.6794 346.349,97.8461 349,106.5C 349.5,131.831 349.667,157.164 349.5,182.5C 356.175,182.334 362.842,182.5 369.5,183C 373.837,184.339 377.337,186.839 380,190.5C 381.146,207.103 381.646,223.77 381.5,240.5C 381.333,256.167 381.167,271.833 381,287.5C 379.073,292.428 375.573,295.594 370.5,297C 363.508,297.5 356.508,297.666 349.5,297.5C 349.667,335.501 349.5,373.501 349,411.5C 342.669,453.824 319.836,483.324 280.5,500C 272.736,502.941 264.736,504.941 256.5,506C 220.833,506.667 185.167,506.667 149.5,506C 95.2991,495.132 64.4658,462.299 57,407.5C 56.5,370.835 56.3333,334.168 56.5,297.5C 49.4921,297.666 42.4921,297.5 35.5,297C 30,295.5 26.5,292 25,286.5C 24.3333,255.833 24.3333,225.167 25,194.5C 26.9422,188.224 31.1089,184.39 37.5,183C 43.8246,182.5 50.1579,182.334 56.5,182.5C 56.3334,157.831 56.5,133.164 57,108.5C 59.5823,97.0879 66.4157,89.7545 77.5,86.5 Z M 79.5,99.5 C 161.834,99.3333 244.167,99.5 326.5,100C 330.186,101.089 333.019,103.255 335,106.5C 336.66,207.777 336.993,309.11 336,410.5C 330.087,446.41 310.587,471.91 277.5,487C 270.384,489.817 263.05,491.817 255.5,493C 220.5,495 185.5,495 150.5,493C 103.637,482.804 76.8039,453.971 70,406.5C 69.3333,307.833 69.3333,209.167 70,110.5C 71.5992,105.406 74.7658,101.739 79.5,99.5 Z M 102.5,176.5 C 113.838,176.333 125.172,176.5 136.5,177C 162.167,209.333 187.833,241.667 213.5,274C 222.156,275.183 224.99,271.683 222,263.5C 199.167,234.667 176.333,205.833 153.5,177C 171.167,176.333 188.833,176.333 206.5,177C 237.027,214.56 267.194,252.393 297,290.5C 298.187,292.044 298.52,293.711 298,295.5C 293.578,300.293 288.078,302.793 281.5,303C 244.167,303.667 206.833,303.667 169.5,303C 158.074,288.151 146.407,273.484 134.5,259C 127.22,257.281 124.053,260.115 125,267.5C 134.167,279.333 143.333,291.167 152.5,303C 143.167,303.667 133.833,303.667 124.5,303C 112.884,301.383 105.717,294.883 103,283.5C 102.5,247.835 102.333,212.168 102.5,176.5 Z M 223.5,177.5 C 249.995,176.502 276.661,176.169 303.5,176.5C 303.667,210.168 303.5,243.835 303,277.5C 277.017,243.691 250.517,210.358 223.5,177.5 Z M 39.5,195.5 C 45.1667,195.5 50.8333,195.5 56.5,195.5C 56.5,225.167 56.5,254.833 56.5,284.5C 50.2424,284.81 44.0758,284.476 38,283.5C 37.3333,254.833 37.3333,226.167 38,197.5C 38.7172,196.956 39.2172,196.289 39.5,195.5 Z M 349.5,195.5 C 355.561,195.21 361.561,195.543 367.5,196.5C 368.667,225.494 368.833,254.494 368,283.5C 361.924,284.476 355.758,284.81 349.5,284.5C 349.5,254.833 349.5,225.167 349.5,195.5 Z"/></g>
<g><path style="opacity:0.921" fill="#ce9233" d="M 427.5,88.5 C 429.989,88.2978 432.323,88.7978 434.5,90C 442.697,98.5309 451.197,106.698 460,114.5C 460.5,127.829 460.667,141.163 460.5,154.5C 464.167,154.5 467.833,154.5 471.5,154.5C 471.228,150.098 471.561,145.765 472.5,141.5C 475.208,139.564 478.208,139.064 481.5,140C 482.701,140.903 483.535,142.069 484,143.5C 484.667,154.833 484.667,166.167 484,177.5C 481.271,182.19 477.604,183.19 473,180.5C 471.621,175.964 471.121,171.297 471.5,166.5C 467.833,166.5 464.167,166.5 460.5,166.5C 460.5,173.833 460.5,181.167 460.5,188.5C 474.441,191.274 482.941,199.608 486,213.5C 486.667,274.5 486.667,335.5 486,396.5C 482.325,409.509 473.991,417.842 461,421.5C 460.667,449.167 460.333,476.833 460,504.5C 457.159,506.504 453.993,507.004 450.5,506C 449.107,504.829 448.273,503.329 448,501.5C 447.5,474.502 447.333,447.502 447.5,420.5C 434.597,417.431 426.43,409.431 423,396.5C 422.333,335.5 422.333,274.5 423,213.5C 425.825,200.507 433.658,192.174 446.5,188.5C 447.666,165.841 447.833,143.174 447,120.5C 439.475,113.731 432.142,106.731 425,99.5C 422.584,95.0776 423.417,91.4109 427.5,88.5 Z M 451.5,200.5 C 462.24,200.448 469.407,205.448 473,215.5C 473.5,252.498 473.667,289.498 473.5,326.5C 460.833,326.5 448.167,326.5 435.5,326.5C 435.333,289.498 435.5,252.498 436,215.5C 438.455,207.543 443.621,202.543 451.5,200.5 Z M 435.5,339.5 C 448.167,339.5 460.833,339.5 473.5,339.5C 473.667,357.503 473.5,375.503 473,393.5C 467.871,407.545 458.371,411.712 444.5,406C 440.512,403.013 437.679,399.18 436,394.5C 435.5,376.17 435.333,357.836 435.5,339.5 Z"/></g>
<g><path style="opacity:0.925" fill="#ce9233" d="M 94.5,163.5 C 167.891,163.009 241.225,163.509 314.5,165C 315.126,165.75 315.626,166.584 316,167.5C 316.667,207.167 316.667,246.833 316,286.5C 313.194,301.616 304.361,311.116 289.5,315C 231.833,315.667 174.167,315.667 116.5,315C 101.24,310.407 92.4066,300.241 90,284.5C 89.3333,245.833 89.3333,207.167 90,168.5C 91.025,166.313 92.525,164.646 94.5,163.5 Z M 102.5,176.5 C 102.333,212.168 102.5,247.835 103,283.5C 105.717,294.883 112.884,301.383 124.5,303C 133.833,303.667 143.167,303.667 152.5,303C 143.333,291.167 134.167,279.333 125,267.5C 124.053,260.115 127.22,257.281 134.5,259C 146.407,273.484 158.074,288.151 169.5,303C 206.833,303.667 244.167,303.667 281.5,303C 288.078,302.793 293.578,300.293 298,295.5C 298.52,293.711 298.187,292.044 297,290.5C 267.194,252.393 237.027,214.56 206.5,177C 188.833,176.333 171.167,176.333 153.5,177C 176.333,205.833 199.167,234.667 222,263.5C 224.99,271.683 222.156,275.183 213.5,274C 187.833,241.667 162.167,209.333 136.5,177C 125.172,176.5 113.838,176.333 102.5,176.5 Z M 223.5,177.5 C 250.517,210.358 277.017,243.691 303,277.5C 303.5,243.835 303.667,210.168 303.5,176.5C 276.661,176.169 249.995,176.502 223.5,177.5 Z"/></g>
</svg>
