<?xml version="1.0" encoding="UTF-8"?>
<!DOCTYPE svg PUBLIC "-//W3C//DTD SVG 1.1//EN" "http://www.w3.org/Graphics/SVG/1.1/DTD/svg11.dtd">
<svg xmlns="http://www.w3.org/2000/svg" version="1.1" width="512px" height="512px" style="shape-rendering:geometricPrecision; text-rendering:geometricPrecision; image-rendering:optimizeQuality; fill-rule:evenodd; clip-rule:evenodd" xmlns:xlink="http://www.w3.org/1999/xlink">
<g><path style="opacity:0.976" fill="#ce9233" d="M 56.5,7.5 C 60.9671,7.13256 65.3004,7.63256 69.5,9C 71.0163,10.897 71.683,13.0637 71.5,15.5C 96.2838,11.4791 116.784,18.8125 133,37.5C 137.697,44.5624 141.031,52.2291 143,60.5C 143.5,74.8295 143.667,89.1628 143.5,103.5C 151.019,103.177 156.186,106.51 159,113.5C 159.667,158.5 159.667,203.5 159,248.5C 154.667,264.833 144.333,275.167 128,279.5C 127.333,306.167 127.333,332.833 128,359.5C 129.833,373.333 137.667,381.167 151.5,383C 162.161,383.5 172.828,383.667 183.5,383.5C 183.333,285.166 183.5,186.833 184,88.5C 186.833,80.3333 192.333,74.8333 200.5,72C 227.506,71.8332 254.506,71.3332 281.5,70.5C 288.667,51.5 295.833,32.5 303,13.5C 303.685,10.9427 305.185,9.1094 307.5,8C 331.5,7.33333 355.5,7.33333 379.5,8C 381.815,9.1094 383.315,10.9427 384,13.5C 391.167,32.5 398.333,51.5 405.5,70.5C 432.494,71.3332 459.494,71.8332 486.5,72C 494.667,74.8333 500.167,80.3333 503,88.5C 503.667,205.167 503.667,321.833 503,438.5C 500,446.833 494.333,452.5 486,455.5C 481.333,469.5 476.667,483.5 472,497.5C 471.315,500.057 469.815,501.891 467.5,503C 453.406,503.964 439.406,503.631 425.5,502C 419.273,486.818 413.939,471.318 409.5,455.5C 365.5,455.5 321.5,455.5 277.5,455.5C 273.061,471.318 267.727,486.818 261.5,502C 254.267,503.133 246.934,503.633 239.5,503.5C 232.066,503.633 224.733,503.133 217.5,502C 211.414,486.744 205.914,471.244 201,455.5C 192.667,452.5 187,446.833 184,438.5C 183.5,425.504 183.333,412.504 183.5,399.5C 168.442,399.934 153.442,399.434 138.5,398C 124.394,392.894 115.56,383.061 112,368.5C 111.667,338.833 111.333,309.167 111,279.5C 94.6667,275.167 84.3333,264.833 80,248.5C 79.6667,230.5 79.3333,212.5 79,194.5C 68.6667,181.5 58.3333,168.5 48,155.5C 47.0448,144.069 47.3781,132.736 49,121.5C 49.7504,120.874 50.5838,120.374 51.5,120C 60.8274,119.5 70.1607,119.334 79.5,119.5C 79.8333,109.167 85.1667,103.833 95.5,103.5C 95.6664,95.4931 95.4997,87.4931 95,79.5C 94.5531,72.4342 91.0531,67.6008 84.5,65C 80.23,63.9246 75.8967,63.4246 71.5,63.5C 71.5022,69.7657 68.3355,72.4324 62,71.5C 44.2814,69.3529 26.7814,66.1863 9.5,62C 8.87424,61.2496 8.37424,60.4162 8,59.5C 7.03575,45.4059 7.36909,31.4059 9,17.5C 10.6477,16.283 12.481,15.4497 14.5,15C 28.6936,12.8027 42.6936,10.3027 56.5,7.5 Z M 317.5,23.5 C 334.846,23.1672 352.179,23.5005 369.5,24.5C 375.407,40.0561 381.407,55.5561 387.5,71C 358.167,71.6667 328.833,71.6667 299.5,71C 305.797,55.2765 311.797,39.4432 317.5,23.5 Z M 52.5,25.5 C 53.5,25.5 54.5,25.5 55.5,25.5C 55.5,34.8333 55.5,44.1667 55.5,53.5C 44.8697,51.6172 34.2031,49.9505 23.5,48.5C 23.5,42.5 23.5,36.5 23.5,30.5C 33.3842,29.3534 43.0509,27.6867 52.5,25.5 Z M 71.5,31.5 C 84.4452,30.4906 96.7785,32.6572 108.5,38C 117.491,44.326 123.325,52.826 126,63.5C 127.332,76.7957 127.832,90.129 127.5,103.5C 122.167,103.5 116.833,103.5 111.5,103.5C 111.667,92.8281 111.5,82.1615 111,71.5C 104.631,52.7174 91.4643,44.7174 71.5,47.5C 71.5,42.1667 71.5,36.8333 71.5,31.5 Z M 207.5,87.5 C 298.167,87.3333 388.834,87.5 479.5,88C 484,88.5 486.5,91 487,95.5C 487.667,207.5 487.667,319.5 487,431.5C 486.5,436 484,438.5 479.5,439C 388.833,439.667 298.167,439.667 207.5,439C 203,438.5 200.5,436 200,431.5C 199.5,420.839 199.333,410.172 199.5,399.5C 205.167,399.5 210.833,399.5 216.5,399.5C 219.239,412.073 226.906,419.907 239.5,423C 256.368,426.146 268.868,420.312 277,405.5C 283.086,388.774 279.252,374.941 265.5,364C 248.331,355.647 233.498,358.481 221,372.5C 218.425,375.726 216.925,379.393 216.5,383.5C 210.833,383.5 205.167,383.5 199.5,383.5C 199.333,287.499 199.5,191.499 200,95.5C 200.68,90.9895 203.18,88.3228 207.5,87.5 Z M 95.5,119.5 C 111.5,119.5 127.5,119.5 143.5,119.5C 143.5,156.833 143.5,194.167 143.5,231.5C 127.5,231.5 111.5,231.5 95.5,231.5C 95.5,194.167 95.5,156.833 95.5,119.5 Z M 231.5,119.5 C 252.833,119.5 274.167,119.5 295.5,119.5C 295.5,130.167 295.5,140.833 295.5,151.5C 274.167,151.5 252.833,151.5 231.5,151.5C 231.5,140.833 231.5,130.167 231.5,119.5 Z M 63.5,135.5 C 68.8333,135.5 74.1667,135.5 79.5,135.5C 79.6665,146.172 79.4998,156.839 79,167.5C 74,161.167 69,154.833 64,148.5C 63.501,144.179 63.3343,139.846 63.5,135.5 Z M 407.5,168.5 C 431.48,166.339 446.98,176.673 454,199.5C 456.648,223.501 446.482,239.001 423.5,246C 399.499,248.648 383.999,238.482 377,215.5C 374.559,191.474 384.726,175.807 407.5,168.5 Z M 231.5,199.5 C 252.833,199.5 274.167,199.5 295.5,199.5C 295.5,210.167 295.5,220.833 295.5,231.5C 274.167,231.5 252.833,231.5 231.5,231.5C 231.5,220.833 231.5,210.167 231.5,199.5 Z M 412.5,200.5 C 421.85,200.365 424.517,204.532 420.5,213C 411.956,216.322 408.123,213.489 409,204.5C 409.69,202.65 410.856,201.316 412.5,200.5 Z M 97.5,248.5 C 111.994,247.339 126.661,247.172 141.5,248C 133.282,262.517 121.616,266.183 106.5,259C 102.886,255.897 99.886,252.397 97.5,248.5 Z M 311.5,295.5 C 359.5,295.5 407.5,295.5 455.5,295.5C 455.5,300.833 455.5,306.167 455.5,311.5C 407.5,311.5 359.5,311.5 311.5,311.5C 311.5,306.167 311.5,300.833 311.5,295.5 Z M 242.5,296.5 C 259.765,296.257 265.598,304.257 260,320.5C 253.749,327.011 246.582,328.177 238.5,324C 231.989,317.749 230.823,310.582 235,302.5C 237.114,299.879 239.614,297.879 242.5,296.5 Z M 311.5,327.5 C 359.5,327.5 407.5,327.5 455.5,327.5C 455.5,332.833 455.5,338.167 455.5,343.5C 407.5,343.5 359.5,343.5 311.5,343.5C 311.5,338.167 311.5,332.833 311.5,327.5 Z M 311.5,359.5 C 359.5,359.5 407.5,359.5 455.5,359.5C 455.5,364.833 455.5,370.167 455.5,375.5C 407.5,375.5 359.5,375.5 311.5,375.5C 311.5,370.167 311.5,364.833 311.5,359.5 Z M 242.5,376.5 C 256.983,375.482 263.483,382.149 262,396.5C 258.091,404.871 251.591,408.037 242.5,406C 239.268,404.77 236.601,402.77 234.5,400C 238.821,399.501 243.154,399.334 247.5,399.5C 247.5,394.167 247.5,388.833 247.5,383.5C 243.154,383.666 238.821,383.499 234.5,383C 236.776,380.211 239.443,378.044 242.5,376.5 Z M 311.5,391.5 C 359.5,391.5 407.5,391.5 455.5,391.5C 455.5,396.833 455.5,402.167 455.5,407.5C 407.5,407.5 359.5,407.5 311.5,407.5C 311.5,402.167 311.5,396.833 311.5,391.5 Z M 219.5,455.5 C 232.85,455.167 246.183,455.501 259.5,456.5C 255.759,466.723 252.426,477.056 249.5,487.5C 242.833,487.5 236.167,487.5 229.5,487.5C 226.369,476.773 223.036,466.106 219.5,455.5 Z M 427.5,455.5 C 440.85,455.167 454.183,455.501 467.5,456.5C 463.759,466.723 460.426,477.056 457.5,487.5C 450.833,487.5 444.167,487.5 437.5,487.5C 434.369,476.773 431.036,466.106 427.5,455.5 Z"/></g>
<g><path style="opacity:0.994" fill="#ce9233" d="M 219.5,103.5 C 249.588,103.016 279.588,103.516 309.5,105C 310.126,105.75 310.626,106.584 311,107.5C 311.167,116.833 311.333,126.167 311.5,135.5C 311.643,145.595 311.143,155.595 310,165.5C 309.25,166.126 308.416,166.626 307.5,167C 292.833,167.167 278.167,167.333 263.5,167.5C 248.077,167.652 232.744,167.152 217.5,166C 216.874,165.25 216.374,164.416 216,163.5C 215.333,144.833 215.333,126.167 216,107.5C 216.69,105.65 217.856,104.316 219.5,103.5 Z M 231.5,119.5 C 231.5,130.167 231.5,140.833 231.5,151.5C 252.833,151.5 274.167,151.5 295.5,151.5C 295.5,140.833 295.5,130.167 295.5,119.5C 274.167,119.5 252.833,119.5 231.5,119.5 Z"/></g>
<g><path style="opacity:1" fill="#ce9233" d="M 359.5,103.5 C 364.833,103.5 370.167,103.5 375.5,103.5C 375.5,108.833 375.5,114.167 375.5,119.5C 370.167,119.5 364.833,119.5 359.5,119.5C 359.5,114.167 359.5,108.833 359.5,103.5 Z"/></g>
<g><path style="opacity:1" fill="#ce9233" d="M 391.5,103.5 C 396.833,103.5 402.167,103.5 407.5,103.5C 407.5,108.833 407.5,114.167 407.5,119.5C 402.167,119.5 396.833,119.5 391.5,119.5C 391.5,114.167 391.5,108.833 391.5,103.5 Z"/></g>
<g><path style="opacity:1" fill="#ce9233" d="M 423.5,103.5 C 428.833,103.5 434.167,103.5 439.5,103.5C 439.5,108.833 439.5,114.167 439.5,119.5C 434.167,119.5 428.833,119.5 423.5,119.5C 423.5,114.167 423.5,108.833 423.5,103.5 Z"/></g>
<g><path style="opacity:1" fill="#ce9233" d="M 455.5,103.5 C 460.833,103.5 466.167,103.5 471.5,103.5C 471.5,108.833 471.5,114.167 471.5,119.5C 466.167,119.5 460.833,119.5 455.5,119.5C 455.5,114.167 455.5,108.833 455.5,103.5 Z"/></g>
<g><path style="opacity:1" fill="#ce9233" d="M 111.5,135.5 C 116.833,135.5 122.167,135.5 127.5,135.5C 127.5,140.833 127.5,146.167 127.5,151.5C 122.167,151.5 116.833,151.5 111.5,151.5C 111.5,146.167 111.5,140.833 111.5,135.5 Z"/></g>
<g><path style="opacity:0.933" fill="#ce9233" d="M 404.5,151.5 C 439.018,148.552 461.185,163.552 471,196.5C 474.4,231.066 459.567,253.233 426.5,263C 391.934,266.4 369.767,251.567 360,218.5C 356.806,183.91 371.639,161.577 404.5,151.5 Z M 407.5,168.5 C 384.726,175.807 374.559,191.474 377,215.5C 383.999,238.482 399.499,248.648 423.5,246C 446.482,239.001 456.648,223.501 454,199.5C 446.98,176.673 431.48,166.339 407.5,168.5 Z M 412.5,200.5 C 410.856,201.316 409.69,202.65 409,204.5C 408.123,213.489 411.956,216.322 420.5,213C 424.517,204.532 421.85,200.365 412.5,200.5 Z"/></g>
<g><path style="opacity:0.994" fill="#ce9233" d="M 219.5,183.5 C 249.588,183.016 279.588,183.516 309.5,185C 310.126,185.75 310.626,186.584 311,187.5C 311.167,196.833 311.333,206.167 311.5,215.5C 311.643,225.595 311.143,235.595 310,245.5C 309.25,246.126 308.416,246.626 307.5,247C 292.833,247.167 278.167,247.333 263.5,247.5C 248.077,247.652 232.744,247.152 217.5,246C 216.874,245.25 216.374,244.416 216,243.5C 215.333,224.833 215.333,206.167 216,187.5C 216.69,185.65 217.856,184.316 219.5,183.5 Z M 231.5,199.5 C 231.5,210.167 231.5,220.833 231.5,231.5C 252.833,231.5 274.167,231.5 295.5,231.5C 295.5,220.833 295.5,210.167 295.5,199.5C 274.167,199.5 252.833,199.5 231.5,199.5 Z"/></g>
<g><path style="opacity:0.934" fill="#ce9233" d="M 408.5,183.5 C 423.367,181.012 433.534,186.678 439,200.5C 441.982,215.376 436.482,225.543 422.5,231C 407.624,233.982 397.457,228.482 392,214.5C 389.146,199.533 394.646,189.199 408.5,183.5 Z M 412.5,200.5 C 410.856,201.316 409.69,202.65 409,204.5C 408.123,213.489 411.956,216.322 420.5,213C 424.517,204.532 421.85,200.365 412.5,200.5 Z"/></g>
<g><path style="opacity:0.93" fill="#ce9233" d="M 239.5,279.5 C 267.978,277.811 281.145,291.144 279,319.5C 272.645,338.438 259.478,346.272 239.5,343C 220.562,336.645 212.728,323.478 216,303.5C 219.349,290.985 227.182,282.985 239.5,279.5 Z M 242.5,296.5 C 239.614,297.879 237.114,299.879 235,302.5C 230.823,310.582 231.989,317.749 238.5,324C 246.582,328.177 253.749,327.011 260,320.5C 265.598,304.257 259.765,296.257 242.5,296.5 Z"/></g>
<g><path style="opacity:0.998" fill="#ce9233" d="M 299.5,279.5 C 356.25,279.008 412.917,279.508 469.5,281C 470.126,281.75 470.626,282.584 471,283.5C 471.167,306.167 471.333,328.833 471.5,351.5C 471.657,374.919 471.157,398.252 470,421.5C 469.25,422.126 468.416,422.626 467.5,423C 439.5,423.167 411.5,423.333 383.5,423.5C 354.749,423.659 326.082,423.159 297.5,422C 296.874,421.25 296.374,420.416 296,419.5C 295.333,374.167 295.333,328.833 296,283.5C 296.69,281.65 297.856,280.316 299.5,279.5 Z M 311.5,295.5 C 311.5,300.833 311.5,306.167 311.5,311.5C 359.5,311.5 407.5,311.5 455.5,311.5C 455.5,306.167 455.5,300.833 455.5,295.5C 407.5,295.5 359.5,295.5 311.5,295.5 Z M 311.5,327.5 C 311.5,332.833 311.5,338.167 311.5,343.5C 359.5,343.5 407.5,343.5 455.5,343.5C 455.5,338.167 455.5,332.833 455.5,327.5C 407.5,327.5 359.5,327.5 311.5,327.5 Z M 311.5,359.5 C 311.5,364.833 311.5,370.167 311.5,375.5C 359.5,375.5 407.5,375.5 455.5,375.5C 455.5,370.167 455.5,364.833 455.5,359.5C 407.5,359.5 359.5,359.5 311.5,359.5 Z M 311.5,391.5 C 311.5,396.833 311.5,402.167 311.5,407.5C 359.5,407.5 407.5,407.5 455.5,407.5C 455.5,402.167 455.5,396.833 455.5,391.5C 407.5,391.5 359.5,391.5 311.5,391.5 Z"/></g>
</svg>
