<?xml version="1.0" encoding="UTF-8"?>
<!DOCTYPE svg PUBLIC "-//W3C//DTD SVG 1.1//EN" "http://www.w3.org/Graphics/SVG/1.1/DTD/svg11.dtd">
<svg xmlns="http://www.w3.org/2000/svg" version="1.1" width="512px" height="512px" style="shape-rendering:geometricPrecision; text-rendering:geometricPrecision; image-rendering:optimizeQuality; fill-rule:evenodd; clip-rule:evenodd" xmlns:xlink="http://www.w3.org/1999/xlink">
<g><path style="opacity:0.987" fill="#ce9233" d="M 91.5,15.5 C 164.249,15.0064 236.916,15.5064 309.5,17C 318.364,25.5298 326.864,34.3631 335,43.5C 335.5,98.1657 335.667,152.832 335.5,207.5C 330.167,207.5 324.833,207.5 319.5,207.5C 319.667,155.499 319.5,103.499 319,51.5C 312.5,45 306,38.5 299.5,32C 232.833,31.3333 166.167,31.3333 99.5,32C 93,38.5 86.5,45 80,51.5C 79.3333,139.5 79.3333,227.5 80,315.5C 86.5,322 93,328.5 99.5,335C 138.165,335.5 176.832,335.667 215.5,335.5C 215.5,340.833 215.5,346.167 215.5,351.5C 174.165,351.667 132.832,351.5 91.5,351C 81.6667,342.5 72.5,333.333 64,323.5C 63.3333,230.167 63.3333,136.833 64,43.5C 72.6993,33.6347 81.866,24.3014 91.5,15.5 Z M 119.5,103.5 C 172.833,103.5 226.167,103.5 279.5,103.5C 279.5,130.167 279.5,156.833 279.5,183.5C 274.167,183.5 268.833,183.5 263.5,183.5C 263.5,178.167 263.5,172.833 263.5,167.5C 258.167,167.5 252.833,167.5 247.5,167.5C 247.5,172.833 247.5,178.167 247.5,183.5C 204.833,183.5 162.167,183.5 119.5,183.5C 119.5,156.833 119.5,130.167 119.5,103.5 Z"/></g>
<g><path style="opacity:1" fill="#ce9233" d="M 95.5,47.5 C 100.833,47.5 106.167,47.5 111.5,47.5C 111.5,52.8333 111.5,58.1667 111.5,63.5C 106.167,63.5 100.833,63.5 95.5,63.5C 95.5,58.1667 95.5,52.8333 95.5,47.5 Z"/></g>
<g><path style="opacity:1" fill="#ce9233" d="M 287.5,47.5 C 292.833,47.5 298.167,47.5 303.5,47.5C 303.5,52.8333 303.5,58.1667 303.5,63.5C 298.167,63.5 292.833,63.5 287.5,63.5C 287.5,58.1667 287.5,52.8333 287.5,47.5 Z"/></g>
<g><path style="opacity:0.998" fill="#ce9233" d="M 107.5,87.5 C 169.583,87.0075 231.583,87.5075 293.5,89C 294.126,89.7504 294.626,90.5838 295,91.5C 295.667,126.167 295.667,160.833 295,195.5C 294.5,197.333 293.333,198.5 291.5,199C 282.173,199.5 272.839,199.666 263.5,199.5C 263.5,204.833 263.5,210.167 263.5,215.5C 271.5,215.5 279.5,215.5 287.5,215.5C 287.5,220.833 287.5,226.167 287.5,231.5C 279.5,231.5 271.5,231.5 263.5,231.5C 263.5,252.833 263.5,274.167 263.5,295.5C 258.167,295.5 252.833,295.5 247.5,295.5C 247.5,274.167 247.5,252.833 247.5,231.5C 202.167,231.5 156.833,231.5 111.5,231.5C 111.5,226.167 111.5,220.833 111.5,215.5C 156.833,215.5 202.167,215.5 247.5,215.5C 247.5,210.167 247.5,204.833 247.5,199.5C 200.082,199.99 152.749,199.49 105.5,198C 104.874,197.25 104.374,196.416 104,195.5C 103.333,160.833 103.333,126.167 104,91.5C 104.69,89.6498 105.856,88.3164 107.5,87.5 Z M 119.5,103.5 C 119.5,130.167 119.5,156.833 119.5,183.5C 162.167,183.5 204.833,183.5 247.5,183.5C 247.5,178.167 247.5,172.833 247.5,167.5C 252.833,167.5 258.167,167.5 263.5,167.5C 263.5,172.833 263.5,178.167 263.5,183.5C 268.833,183.5 274.167,183.5 279.5,183.5C 279.5,156.833 279.5,130.167 279.5,103.5C 226.167,103.5 172.833,103.5 119.5,103.5 Z"/></g>
<g><path style="opacity:0.889" fill="#ce9233" d="M 201.5,111.5 C 205.964,115.463 210.298,119.63 214.5,124C 203,135.5 191.5,147 180,158.5C 175.833,154.333 171.667,150.167 167.5,146C 179.035,134.632 190.369,123.132 201.5,111.5 Z"/></g>
<g><path style="opacity:0.907" fill="#ce9233" d="M 218.5,140.5 C 223.239,143.731 227.572,147.564 231.5,152C 223.667,159.833 215.833,167.667 208,175.5C 203.984,171.652 200.151,167.652 196.5,163.5C 203.855,155.813 211.188,148.146 218.5,140.5 Z"/></g>
<g><path style="opacity:0.913" fill="#ce9233" d="M 344.5,211.5 C 349.464,212.949 354.131,215.115 358.5,218C 359.517,219.049 359.684,220.216 359,221.5C 346,244.167 333,266.833 320,289.5C 318.951,290.517 317.784,290.684 316.5,290C 312.993,287.746 309.327,285.746 305.5,284C 304.483,282.951 304.316,281.784 305,280.5C 318.178,257.473 331.345,234.473 344.5,211.5 Z"/></g>
<g><path style="opacity:0.873" fill="#ce9233" d="M 401.5,224.5 C 406.419,227.748 410.753,231.748 414.5,236.5C 404.014,247.486 393.348,258.319 382.5,269C 381.5,269.667 380.5,269.667 379.5,269C 376.333,265.833 373.167,262.667 370,259.5C 369.333,258.5 369.333,257.5 370,256.5C 380.702,245.965 391.202,235.298 401.5,224.5 Z"/></g>
<g><path style="opacity:0.908" fill="#ce9233" d="M 181.5,240.5 C 183.433,241.642 184.933,243.308 186,245.5C 194.581,260.997 203.414,276.33 212.5,291.5C 208.038,294.785 203.205,297.452 198,299.5C 187.289,283.254 177.455,266.42 168.5,249C 172.72,245.937 177.054,243.104 181.5,240.5 Z"/></g>
<g><path style="opacity:0.899" fill="#ce9233" d="M 124.5,241.5 C 146.415,261.914 167.915,282.914 189,304.5C 189.667,305.167 189.667,305.833 189,306.5C 185.5,310 182,313.5 178.5,317C 177.833,317.667 177.167,317.667 176.5,317C 155.667,296.167 134.833,275.333 114,254.5C 113.333,253.833 113.333,253.167 114,252.5C 117.704,248.964 121.204,245.298 124.5,241.5 Z"/></g>
<g><path style="opacity:0.901" fill="#ce9233" d="M 226.5,244.5 C 230.416,255.491 233.416,266.824 235.5,278.5C 230.224,279.444 225.057,280.777 220,282.5C 216.827,271.65 213.661,260.817 210.5,250C 215.798,247.848 221.131,246.015 226.5,244.5 Z"/></g>
<g><path style="opacity:0.903" fill="#ce9233" d="M 283.5,245.5 C 289.492,245.914 295.159,247.414 300.5,250C 297.415,260.839 294.248,271.672 291,282.5C 286.029,280.465 280.862,279.132 275.5,278.5C 277.757,267.397 280.423,256.397 283.5,245.5 Z"/></g>
<g><path style="opacity:0.973" fill="#ce9233" d="M 371.5,279.5 C 412.252,279.012 452.919,279.512 493.5,281C 494.126,281.75 494.626,282.584 495,283.5C 495.167,295.5 495.333,307.5 495.5,319.5C 495.649,332.258 495.149,344.925 494,357.5C 493.25,358.126 492.416,358.626 491.5,359C 435.5,359.667 379.5,359.667 323.5,359C 320.479,357.461 319.146,354.961 319.5,351.5C 312.825,351.334 306.158,351.5 299.5,352C 290.5,361 281.5,370 272.5,379C 260.581,386.6 248.914,386.267 237.5,378C 228.766,366.549 228.266,354.716 236,342.5C 248.5,330 261,317.5 273.5,305C 288.737,303.532 304.07,303.032 319.5,303.5C 319.146,300.039 320.479,297.539 323.5,296C 334.167,295.667 344.833,295.333 355.5,295C 360.729,289.603 366.062,284.436 371.5,279.5 Z M 379.5,295.5 C 412.833,295.5 446.167,295.5 479.5,295.5C 479.5,311.5 479.5,327.5 479.5,343.5C 468.833,343.5 458.167,343.5 447.5,343.5C 450.221,329.792 445.554,319.625 433.5,313C 422.573,311.403 411.573,311.069 400.5,312C 386.372,317.748 380.705,328.248 383.5,343.5C 378.167,343.5 372.833,343.5 367.5,343.5C 367.333,331.495 367.5,319.495 368,307.5C 372.037,303.631 375.87,299.631 379.5,295.5 Z M 335.5,311.5 C 340.833,311.5 346.167,311.5 351.5,311.5C 351.5,322.167 351.5,332.833 351.5,343.5C 346.167,343.5 340.833,343.5 335.5,343.5C 335.5,332.833 335.5,322.167 335.5,311.5 Z M 283.5,319.5 C 295.5,319.5 307.5,319.5 319.5,319.5C 319.5,324.833 319.5,330.167 319.5,335.5C 310.161,335.334 300.827,335.5 291.5,336C 280.529,345.97 269.863,356.303 259.5,367C 250.333,368.5 246.5,364.667 248,355.5C 260.035,343.632 271.869,331.632 283.5,319.5 Z M 407.5,327.5 C 412.844,327.334 418.177,327.501 423.5,328C 428,328.5 430.5,331 431,335.5C 431.497,338.146 431.664,340.813 431.5,343.5C 420.833,343.5 410.167,343.5 399.5,343.5C 399.001,338.636 400.001,334.136 402.5,330C 404.315,329.243 405.981,328.41 407.5,327.5 Z"/></g>
<g><path style="opacity:0.867" fill="#ce9233" d="M 130.5,302.5 C 136.962,304.561 142.629,307.895 147.5,312.5C 145.271,317.401 142.605,322.067 139.5,326.5C 134.251,323.626 129.085,320.626 124,317.5C 123.333,316.5 123.333,315.5 124,314.5C 126.446,310.606 128.612,306.606 130.5,302.5 Z"/></g>
<g><path style="opacity:1" fill="#ce9233" d="M 95.5,303.5 C 100.833,303.5 106.167,303.5 111.5,303.5C 111.5,308.833 111.5,314.167 111.5,319.5C 106.167,319.5 100.833,319.5 95.5,319.5C 95.5,314.167 95.5,308.833 95.5,303.5 Z"/></g>
<g><path style="opacity:1" fill="#ce9233" d="M 79.5,375.5 C 84.8333,375.5 90.1667,375.5 95.5,375.5C 95.5,380.833 95.5,386.167 95.5,391.5C 90.1667,391.5 84.8333,391.5 79.5,391.5C 79.5,386.167 79.5,380.833 79.5,375.5 Z"/></g>
<g><path style="opacity:1" fill="#ce9233" d="M 111.5,375.5 C 140.833,375.5 170.167,375.5 199.5,375.5C 199.5,380.833 199.5,386.167 199.5,391.5C 170.167,391.5 140.833,391.5 111.5,391.5C 111.5,386.167 111.5,380.833 111.5,375.5 Z"/></g>
<g><path style="opacity:1" fill="#ce9233" d="M 311.5,375.5 C 338.167,375.5 364.833,375.5 391.5,375.5C 391.5,380.833 391.5,386.167 391.5,391.5C 364.833,391.5 338.167,391.5 311.5,391.5C 311.5,386.167 311.5,380.833 311.5,375.5 Z"/></g>
<g><path style="opacity:1" fill="#ce9233" d="M 407.5,375.5 C 412.833,375.5 418.167,375.5 423.5,375.5C 423.5,380.833 423.5,386.167 423.5,391.5C 418.167,391.5 412.833,391.5 407.5,391.5C 407.5,386.167 407.5,380.833 407.5,375.5 Z"/></g>
<g><path style="opacity:0.992" fill="#ce9233" d="M 144.5,407.5 C 218.501,407.333 292.501,407.5 366.5,408C 373.519,410.351 378.686,414.851 382,421.5C 383.41,430.084 383.91,438.75 383.5,447.5C 416.229,447.021 448.896,447.521 481.5,449C 496.045,457.843 499.545,470.009 492,485.5C 489.079,489.092 485.579,491.925 481.5,494C 406.223,495.162 330.89,495.662 255.5,495.5C 180.11,495.662 104.777,495.162 29.5,494C 14.9547,485.157 11.4547,472.991 19,457.5C 21.921,453.908 25.421,451.075 29.5,449C 62.1043,447.521 94.7709,447.021 127.5,447.5C 127.09,438.75 127.59,430.084 129,421.5C 132.492,414.834 137.659,410.168 144.5,407.5 Z M 151.5,423.5 C 220.834,423.333 290.167,423.5 359.5,424C 362.494,424.406 364.661,425.906 366,428.5C 367.37,434.742 367.87,441.075 367.5,447.5C 292.833,447.5 218.167,447.5 143.5,447.5C 143.232,441.618 143.566,435.785 144.5,430C 145.621,426.453 147.954,424.286 151.5,423.5 Z M 39.5,463.5 C 183.5,463.333 327.5,463.5 471.5,464C 478.347,465.866 480.18,470.032 477,476.5C 475.352,477.717 473.519,478.55 471.5,479C 327.5,479.667 183.5,479.667 39.5,479C 32.6531,477.134 30.8197,472.968 34,466.5C 35.8761,465.391 37.7095,464.391 39.5,463.5 Z"/></g>
</svg>
