<?xml version="1.0" encoding="UTF-8"?>
<!DOCTYPE svg PUBLIC "-//W3C//DTD SVG 1.1//EN" "http://www.w3.org/Graphics/SVG/1.1/DTD/svg11.dtd">
<svg xmlns="http://www.w3.org/2000/svg" version="1.1" width="512px" height="512px" style="shape-rendering:geometricPrecision; text-rendering:geometricPrecision; image-rendering:optimizeQuality; fill-rule:evenodd; clip-rule:evenodd" xmlns:xlink="http://www.w3.org/1999/xlink">
<g><path style="opacity:0.932" fill="#ce9233" d="M 34.5,41.5 C 52.4321,41.7689 64.0987,50.4356 69.5,67.5C 182.165,68.6667 294.832,68.8333 407.5,68C 412.405,51.5964 423.405,42.7631 440.5,41.5C 457.881,42.7215 468.715,51.7215 473,68.5C 473.667,113.833 473.667,159.167 473,204.5C 465.241,227.297 449.741,235.13 426.5,228C 416.303,223.302 409.97,215.469 407.5,204.5C 368.171,203.333 328.838,203.167 289.5,204C 297.857,223.402 306.024,242.902 314,262.5C 314.368,263.91 315.201,264.91 316.5,265.5C 329.967,260.006 343.967,256.673 358.5,255.5C 371.69,259.063 384.856,262.73 398,266.5C 400.274,263.131 403.107,260.298 406.5,258C 416.052,253.724 425.719,249.724 435.5,246C 442.141,244.594 448.141,245.927 453.5,250C 456.987,255.139 459.82,260.639 462,266.5C 476.333,301.167 490.667,335.833 505,370.5C 510.257,381.887 507.757,391.054 497.5,398C 488.5,401.667 479.5,405.333 470.5,409C 464.82,410.167 459.486,409.334 454.5,406.5C 445.984,414.85 437.318,423.016 428.5,431C 399.419,442.805 370.419,454.805 341.5,467C 322.11,472.558 309.61,465.725 304,446.5C 303.82,442.076 303.653,437.743 303.5,433.5C 288.803,426.773 283.136,415.439 286.5,399.5C 273.732,395.888 267.065,387.388 266.5,374C 266.614,370.711 267.281,367.544 268.5,364.5C 251.931,355.293 247.431,341.959 255,324.5C 259.738,318.102 265.905,313.602 273.5,311C 272.851,306.895 273.517,302.895 275.5,299C 262.167,267.333 248.833,235.667 235.5,204C 201.162,203.167 166.828,203.333 132.5,204.5C 131.833,205.833 131.167,207.167 130.5,208.5C 142.443,212.425 154.443,216.259 166.5,220C 170.739,224.704 170.405,229.038 165.5,233C 153.555,236.149 141.888,239.982 130.5,244.5C 136.201,254.373 141.701,264.373 147,274.5C 148.833,283.333 145.333,286.833 136.5,285C 126.339,279.754 116.339,274.254 106.5,268.5C 101.982,279.888 98.1487,291.555 95,303.5C 90.9968,308.42 86.6634,308.753 82,304.5C 78.2675,292.469 74.4342,280.469 70.5,268.5C 60.1667,274 49.8333,279.5 39.5,285C 30.506,286.005 27.3393,282.172 30,273.5C 35.1198,263.424 40.6198,253.591 46.5,244C 34.8442,240.337 23.1776,236.671 11.5,233C 6.1881,228.428 6.1881,223.761 11.5,219C 7.5368,214.573 5.0368,209.406 4,203.5C 3.33333,158.833 3.33333,114.167 4,69.5C 7.70777,52.9529 17.8744,43.6196 34.5,41.5 Z M 34.5,56.5 C 45.9858,56.6483 52.8191,62.315 55,73.5C 55.8332,107.505 55.6666,141.505 54.5,175.5C 48.7737,171.97 42.7737,168.97 36.5,166.5C 31.5,166.833 28.8333,169.5 28.5,174.5C 34.4532,186.072 40.1198,197.739 45.5,209.5C 39.5763,211.317 33.5763,212.484 27.5,213C 23.0578,209.955 20.2244,205.789 19,200.5C 18.3333,157.5 18.3333,114.5 19,71.5C 21.4548,63.5428 26.6215,58.5428 34.5,56.5 Z M 435.5,57.5 C 446.802,56.2269 454.302,60.8936 458,71.5C 458.667,114.833 458.667,158.167 458,201.5C 452.933,214.861 443.767,218.694 430.5,213C 427.238,210.408 424.738,207.241 423,203.5C 422.333,158.833 422.333,114.167 423,69.5C 425.769,63.8947 429.936,59.8947 435.5,57.5 Z M 70.5,83.5 C 182.833,83.5 295.167,83.5 407.5,83.5C 407.5,118.833 407.5,154.167 407.5,189.5C 366.161,189.833 324.828,189.5 283.5,188.5C 274.625,167.043 265.459,145.71 256,124.5C 234.877,96.5701 207.377,87.4034 173.5,97C 166.624,100.87 160.624,105.87 155.5,112C 148.616,115.275 141.616,118.275 134.5,121C 132.951,122.214 131.785,123.714 131,125.5C 130.949,128.277 130.782,130.943 130.5,133.5C 122.833,136.667 115.167,139.833 107.5,143C 103.5,147.333 103.5,151.667 107.5,156C 108.833,156.167 110.167,156.333 111.5,156.5C 120.229,154.222 128.729,151.222 137,147.5C 138.986,150.577 141.819,152.244 145.5,152.5C 152.924,149.957 160.257,147.123 167.5,144C 173.344,143.473 179.178,143.639 185,144.5C 193.088,141.341 200.922,141.841 208.5,146C 211.04,148.205 213.207,150.705 215,153.5C 219.736,165.207 224.569,176.874 229.5,188.5C 199.839,189.667 170.172,189.833 140.5,189C 143.774,184.619 146.107,179.786 147.5,174.5C 145.491,166.337 140.825,164.503 133.5,169C 124.333,174.167 115.167,179.333 106,184.5C 102.214,171.851 98.0477,159.351 93.5,147C 88.0799,144.144 83.9132,145.311 81,150.5C 77.8218,161.546 74.4884,172.546 71,183.5C 70.5,150.168 70.3333,116.835 70.5,83.5 Z M 195.5,107.5 C 216.335,108.329 232.501,117.329 244,134.5C 263.195,179.752 282.195,225.085 301,270.5C 301.781,271.944 301.614,273.277 300.5,274.5C 295.833,278.167 291.167,281.833 286.5,285.5C 267.062,239.623 247.896,193.623 229,147.5C 218.784,129.976 203.784,123.976 184,129.5C 178.816,128.932 173.649,128.265 168.5,127.5C 161.954,130.237 155.288,132.571 148.5,134.5C 148.281,133.325 148.614,132.325 149.5,131.5C 154.5,129.333 159.5,127.167 164.5,125C 168.833,120.667 173.167,116.333 177.5,112C 183.449,109.783 189.449,108.283 195.5,107.5 Z M 120.5,258.5 C 114.886,255.693 109.22,252.86 103.5,250C 99.114,248.943 95.9473,250.443 94,254.5C 91.998,260.511 89.998,266.511 88,272.5C 86.3333,266.833 84.6667,261.167 83,255.5C 81.2683,250.383 77.7683,248.55 72.5,250C 67.1128,253.53 61.4461,256.197 55.5,258C 58.7142,253.074 61.5475,247.907 64,242.5C 65.3782,238.013 64.2115,234.513 60.5,232C 54.3194,230.384 48.3194,228.384 42.5,226C 48.8803,224.155 55.2136,222.155 61.5,220C 64.3939,217.091 65.2272,213.591 64,209.5C 60.9617,204.757 58.4617,199.757 56.5,194.5C 61.7568,196.462 66.7568,198.962 71.5,202C 75.5913,203.227 79.0913,202.394 82,199.5C 84,192.833 86,186.167 88,179.5C 90.198,185.761 92.198,192.095 94,198.5C 96.513,202.212 100.013,203.378 104.5,202C 109.907,199.548 115.074,196.714 120,193.5C 117.94,199.295 115.273,204.961 112,210.5C 110.55,215.768 112.383,219.268 117.5,221C 123.167,222.667 128.833,224.333 134.5,226C 128.608,228.307 122.608,230.307 116.5,232C 112.443,233.947 110.943,237.114 112,241.5C 114.86,247.22 117.693,252.886 120.5,258.5 Z M 438.5,260.5 C 442.224,260.05 444.391,261.717 445,265.5C 460.971,303.943 476.805,342.443 492.5,381C 492.241,382.261 491.574,383.261 490.5,384C 482.283,387.794 473.95,391.294 465.5,394.5C 462.542,393.62 460.709,391.62 460,388.5C 444.296,350.261 428.462,312.094 412.5,274C 413.167,273 413.833,272 414.5,271C 422.707,267.724 430.707,264.224 438.5,260.5 Z M 356.5,270.5 C 371.159,274.331 385.659,278.664 400,283.5C 415.167,319.833 430.333,356.167 445.5,392.5C 437.681,400.819 429.681,408.986 421.5,417C 409.207,422.264 396.874,427.431 384.5,432.5C 383.833,420.986 378.5,412.486 368.5,407C 375.398,391.683 371.732,379.35 357.5,370C 363.553,354.159 359.553,341.492 345.5,332C 346.638,327.864 347.638,323.698 348.5,319.5C 352.538,318.399 356.038,316.399 359,313.5C 360.833,304.667 357.333,301.167 348.5,303C 331.472,310.176 313.806,315.009 295.5,317.5C 293.833,317.333 292.167,317.167 290.5,317C 286.408,311.999 286.575,307.166 291,302.5C 302.4,290.428 315.9,281.595 331.5,276C 339.877,273.722 348.21,271.889 356.5,270.5 Z M 328.5,325.5 C 329.552,325.351 330.552,325.517 331.5,326C 330.257,327.154 329.257,328.488 328.5,330C 312.949,336.942 297.282,343.609 281.5,350C 268.975,350.471 264.475,344.638 268,332.5C 270.329,329.502 273.329,327.502 277,326.5C 282.182,330.799 288.182,332.799 295,332.5C 306.646,331.872 317.813,329.539 328.5,325.5 Z M 331.5,345.5 C 341.129,345.96 345.629,350.96 345,360.5C 344.117,363.102 342.617,365.269 340.5,367C 326.282,373.276 311.948,379.276 297.5,385C 288.343,386.763 283.01,383.096 281.5,374C 282.217,369.9 284.217,366.567 287.5,364C 302.371,358.057 317.038,351.89 331.5,345.5 Z M 342.5,382.5 C 353.351,382.554 357.851,387.887 356,398.5C 355.293,400.081 354.46,401.581 353.5,403C 341.314,408.591 328.98,413.925 316.5,419C 306.353,420.185 301.186,415.685 301,405.5C 302.061,402.438 303.894,399.938 306.5,398C 318.706,393.057 330.706,387.891 342.5,382.5 Z M 354.5,419.5 C 364.147,419.977 368.647,424.977 368,434.5C 367.31,437.196 365.81,439.363 363.5,441C 352.69,445.992 341.69,450.492 330.5,454.5C 323.274,453.441 319.274,449.274 318.5,442C 319.125,438.416 320.792,435.416 323.5,433C 333.893,428.379 344.226,423.879 354.5,419.5 Z"/></g>
</svg>
