<?xml version="1.0" encoding="UTF-8"?>
<!DOCTYPE svg PUBLIC "-//W3C//DTD SVG 1.1//EN" "http://www.w3.org/Graphics/SVG/1.1/DTD/svg11.dtd">
<svg xmlns="http://www.w3.org/2000/svg" version="1.1" width="512px" height="512px" style="shape-rendering:geometricPrecision; text-rendering:geometricPrecision; image-rendering:optimizeQuality; fill-rule:evenodd; clip-rule:evenodd" xmlns:xlink="http://www.w3.org/1999/xlink">
<g><path style="opacity:0.933" fill="#ce9233" d="M 124.5,-0.5 C 129.5,-0.5 134.5,-0.5 139.5,-0.5C 148.594,2.63992 155.094,8.63992 159,17.5C 160.105,34.1271 161.105,50.7938 162,67.5C 164.72,80.1175 170.886,90.6175 180.5,99C 183.454,98.6843 186.454,98.1843 189.5,97.5C 189.5,94.5 189.5,91.5 189.5,88.5C 179.185,85.6837 172.685,79.0171 170,68.5C 167.643,51.536 174.309,39.8693 190,33.5C 194.585,16.084 205.418,4.75062 222.5,-0.5C 228.833,-0.5 235.167,-0.5 241.5,-0.5C 258.259,4.42775 268.759,15.4277 273,32.5C 273.333,125.167 273.667,217.833 274,310.5C 278.465,327.15 288.965,332.983 305.5,328C 310.744,324.752 314.578,320.252 317,314.5C 317.06,294.124 317.727,273.791 319,253.5C 322.784,244.099 329.784,239.099 340,238.5C 340.5,204.168 340.667,169.835 340.5,135.5C 338.167,135.5 335.833,135.5 333.5,135.5C 333.5,130.167 333.5,124.833 333.5,119.5C 335.833,119.5 338.167,119.5 340.5,119.5C 340.5,114.5 340.5,109.5 340.5,104.5C 355.833,104.5 371.167,104.5 386.5,104.5C 386.5,109.5 386.5,114.5 386.5,119.5C 389.167,119.5 391.833,119.5 394.5,119.5C 394.5,124.833 394.5,130.167 394.5,135.5C 391.833,135.5 389.167,135.5 386.5,135.5C 386.5,140.167 386.5,144.833 386.5,149.5C 389.167,149.5 391.833,149.5 394.5,149.5C 394.5,154.833 394.5,160.167 394.5,165.5C 391.833,165.5 389.167,165.5 386.5,165.5C 386.5,183.167 386.5,200.833 386.5,218.5C 378.833,218.5 371.167,218.5 363.5,218.5C 363.5,213.167 363.5,207.833 363.5,202.5C 365.833,202.5 368.167,202.5 370.5,202.5C 370.5,175.167 370.5,147.833 370.5,120.5C 365.833,120.5 361.167,120.5 356.5,120.5C 356.667,160.835 356.5,201.168 356,241.5C 354.974,245.722 352.807,249.222 349.5,252C 344.844,254.407 340.011,256.241 335,257.5C 334.895,277.196 334.228,296.863 333,316.5C 327.615,334.87 315.282,344.87 296,346.5C 273.574,344.739 260.907,332.739 258,310.5C 257.667,270.833 257.333,231.167 257,191.5C 253.951,190.39 250.784,189.723 247.5,189.5C 247.667,266.501 247.5,343.501 247,420.5C 239.461,451.699 219.628,465.866 187.5,463C 173.736,460.232 162.903,453.065 155,441.5C 134.971,465.702 111.138,470.202 83.5,455C 72.7825,447.074 65.9492,436.574 63,423.5C 61.8557,375.855 61.3557,328.188 61.5,280.5C 61.3557,232.812 61.8557,185.145 63,137.5C 68.1667,116.333 81.3333,103.167 102.5,98C 103.833,95 103.833,92 102.5,89C 92.4114,85.0821 86.0781,77.9154 83.5,67.5C 78.8333,67.5 74.1667,67.5 69.5,67.5C 69.5,62.1667 69.5,56.8333 69.5,51.5C 74.5111,51.6659 79.5111,51.4993 84.5,51C 88.2423,42.4186 94.5757,36.9186 103.5,34.5C 101.59,17.2991 108.59,5.63248 124.5,-0.5 Z M 127.5,15.5 C 135.089,14.0454 140.589,16.7121 144,23.5C 144.333,35.8333 144.667,48.1667 145,60.5C 146.414,78.7638 153.247,94.5972 165.5,108C 161.631,111.534 158.131,115.367 155,119.5C 146.11,107.448 134.276,100.115 119.5,97.5C 119.336,94.8127 119.503,92.146 120,89.5C 137.116,81.6026 143.116,68.6026 138,50.5C 134.421,42.0825 128.255,36.7492 119.5,34.5C 118.097,26.3207 120.763,19.9874 127.5,15.5 Z M 225.5,15.5 C 241.654,13.519 252.154,20.1856 257,35.5C 257.5,81.8321 257.667,128.165 257.5,174.5C 253.431,174.986 250.264,173.653 248,170.5C 247.832,158.797 247.166,147.13 246,135.5C 240.069,115.902 227.235,103.402 207.5,98C 206.549,94.9433 206.216,91.7766 206.5,88.5C 216.815,85.6837 223.315,79.0171 226,68.5C 228.417,52.8289 222.584,41.6622 208.5,35C 208.379,29.3624 210.712,24.6957 215.5,21C 218.767,18.8703 222.1,17.037 225.5,15.5 Z M 197.5,48.5 C 210.097,51.796 213.264,59.1294 207,70.5C 206.501,66.8484 206.335,63.1817 206.5,59.5C 200.833,59.5 195.167,59.5 189.5,59.5C 189.665,63.1817 189.499,66.8484 189,70.5C 182.898,59.6331 185.731,52.2998 197.5,48.5 Z M 106.5,49.5 C 116.216,48.0194 122.216,52.0194 124.5,61.5C 120.049,73.6675 118.382,73.0009 119.5,59.5C 114.167,59.5 108.833,59.5 103.5,59.5C 103.665,63.1817 103.499,66.8484 103,70.5C 97.5633,65.103 97.2299,59.4363 102,53.5C 103.667,52.2668 105.167,50.9335 106.5,49.5 Z M 111.5,112.5 C 129.124,114.291 140.624,123.625 146,140.5C 146.667,233.833 146.667,327.167 146,420.5C 139.613,440.786 125.78,449.62 104.5,447C 85.3942,440.304 76.7276,426.804 78.5,406.5C 98.5,406.5 118.5,406.5 138.5,406.5C 138.5,366.167 138.5,325.833 138.5,285.5C 118.5,285.5 98.5,285.5 78.5,285.5C 78.3333,236.832 78.5,188.166 79,139.5C 84.003,123.319 94.8364,114.319 111.5,112.5 Z M 196.5,112.5 C 213.381,113.888 224.548,122.555 230,138.5C 231.476,187.461 231.976,236.461 231.5,285.5C 212.5,285.5 193.5,285.5 174.5,285.5C 174.5,325.833 174.5,366.167 174.5,406.5C 193.5,406.5 212.5,406.5 231.5,406.5C 232.831,427.031 223.831,440.531 204.5,447C 180.87,449.367 167.037,438.867 163,415.5C 162.333,325.167 162.333,234.833 163,144.5C 166.581,125.749 177.748,115.083 196.5,112.5 Z M 78.5,301.5 C 93.1667,301.5 107.833,301.5 122.5,301.5C 122.5,331.167 122.5,360.833 122.5,390.5C 107.833,390.5 93.1667,390.5 78.5,390.5C 78.5,360.833 78.5,331.167 78.5,301.5 Z M 190.5,301.5 C 204.167,301.5 217.833,301.5 231.5,301.5C 231.5,331.167 231.5,360.833 231.5,390.5C 217.833,390.5 204.167,390.5 190.5,390.5C 190.5,360.833 190.5,331.167 190.5,301.5 Z"/></g>
<g><path style="opacity:0.923" fill="#ce9233" d="M 436.5,-0.5 C 441.167,-0.5 445.833,-0.5 450.5,-0.5C 469.949,7.20785 489.615,14.5412 509.5,21.5C 508.374,27.0424 506.541,32.3758 504,37.5C 485.183,30.3382 466.35,23.1715 447.5,16C 428.911,16.5828 418.578,26.2494 416.5,45C 418.82,61.4863 428.153,71.3197 444.5,74.5C 463.945,67.0277 483.445,59.6944 503,52.5C 503.772,52.6448 504.439,52.9781 505,53.5C 506.697,57.5905 508.197,61.7571 509.5,66C 508.556,67.4768 507.223,68.4768 505.5,69C 486.756,75.8035 468.089,82.8035 449.5,90C 420.455,88.9584 404.122,73.9584 400.5,45C 402.633,21.8465 414.633,6.67987 436.5,-0.5 Z"/></g>
<g><path style="opacity:0.93" fill="#ce9233" d="M 441.5,25.5 C 446.232,25.3776 450.898,25.8776 455.5,27C 470.785,32.1497 485.785,37.983 500.5,44.5C 486.225,51.2053 471.558,57.0387 456.5,62C 436.843,66.9901 427.343,59.4901 428,39.5C 430.017,32.3185 434.517,27.6518 441.5,25.5 Z M 444.5,41.5 C 460.334,44.1454 460.334,45.9787 444.5,47C 443.248,45.1722 443.248,43.3388 444.5,41.5 Z"/></g>
<g><path style="opacity:0.914" fill="#ce9233" d="M 374.5,36.5 C 381.167,36.5 387.833,36.5 394.5,36.5C 394.5,41.8333 394.5,47.1667 394.5,52.5C 390.154,52.3343 385.821,52.501 381.5,53C 376,58.5 370.5,64 365,69.5C 364.5,76.4921 364.334,83.4921 364.5,90.5C 359.167,90.5 353.833,90.5 348.5,90.5C 348.334,81.1607 348.5,71.8274 349,62.5C 357.702,53.965 366.202,45.2983 374.5,36.5 Z"/></g>
<g><path style="opacity:0.933" fill="#ce9233" d="M 39.5,44.5 C 44.8333,44.5 50.1667,44.5 55.5,44.5C 55.5,46.8333 55.5,49.1667 55.5,51.5C 57.8333,51.5 60.1667,51.5 62.5,51.5C 62.5,56.8333 62.5,62.1667 62.5,67.5C 60.1667,67.5 57.8333,67.5 55.5,67.5C 55.5,70.1667 55.5,72.8333 55.5,75.5C 50.1667,75.5 44.8333,75.5 39.5,75.5C 39.5,65.1667 39.5,54.8333 39.5,44.5 Z"/></g>
<g><path style="opacity:0.908" fill="#ce9233" d="M 293.5,111.5 C 298.833,111.5 304.167,111.5 309.5,111.5C 309.5,114.167 309.5,116.833 309.5,119.5C 312.5,119.5 315.5,119.5 318.5,119.5C 318.5,124.833 318.5,130.167 318.5,135.5C 315.5,135.5 312.5,135.5 309.5,135.5C 309.5,138.167 309.5,140.833 309.5,143.5C 304.167,143.5 298.833,143.5 293.5,143.5C 293.5,132.833 293.5,122.167 293.5,111.5 Z"/></g>
<g><path style="opacity:0.887" fill="#ce9233" d="M 103.5,127.5 C 108.833,127.5 114.167,127.5 119.5,127.5C 119.5,132.833 119.5,138.167 119.5,143.5C 114.167,143.5 108.833,143.5 103.5,143.5C 103.5,138.167 103.5,132.833 103.5,127.5 Z"/></g>
<g><path style="opacity:0.84" fill="#ce9233" d="M 189.5,127.5 C 195.167,127.5 200.833,127.5 206.5,127.5C 206.666,132.511 206.499,137.511 206,142.5C 200.667,143.833 195.333,143.833 190,142.5C 189.501,137.511 189.334,132.511 189.5,127.5 Z"/></g>
<g><path style="opacity:0.887" fill="#ce9233" d="M 103.5,157.5 C 108.833,157.5 114.167,157.5 119.5,157.5C 119.5,162.833 119.5,168.167 119.5,173.5C 114.167,173.5 108.833,173.5 103.5,173.5C 103.5,168.167 103.5,162.833 103.5,157.5 Z"/></g>
<g><path style="opacity:0.834" fill="#ce9233" d="M 189.5,157.5 C 195.167,157.5 200.833,157.5 206.5,157.5C 206.5,162.833 206.5,168.167 206.5,173.5C 200.833,173.5 195.167,173.5 189.5,173.5C 189.5,168.167 189.5,162.833 189.5,157.5 Z"/></g>
<g><path style="opacity:0.885" fill="#ce9233" d="M 103.5,187.5 C 108.833,187.5 114.167,187.5 119.5,187.5C 119.5,192.833 119.5,198.167 119.5,203.5C 114.167,203.5 108.833,203.5 103.5,203.5C 103.5,198.167 103.5,192.833 103.5,187.5 Z"/></g>
<g><path style="opacity:0.833" fill="#ce9233" d="M 189.5,187.5 C 195.167,187.5 200.833,187.5 206.5,187.5C 206.5,192.833 206.5,198.167 206.5,203.5C 200.833,203.5 195.167,203.5 189.5,203.5C 189.5,198.167 189.5,192.833 189.5,187.5 Z"/></g>
<g><path style="opacity:0.887" fill="#ce9233" d="M 92.5,322.5 C 97.8333,322.5 103.167,322.5 108.5,322.5C 108.5,327.833 108.5,333.167 108.5,338.5C 103.167,338.5 97.8333,338.5 92.5,338.5C 92.5,333.167 92.5,327.833 92.5,322.5 Z"/></g>
<g><path style="opacity:0.887" fill="#ce9233" d="M 201.5,322.5 C 206.833,322.5 212.167,322.5 217.5,322.5C 217.5,327.833 217.5,333.167 217.5,338.5C 212.167,338.5 206.833,338.5 201.5,338.5C 201.5,333.167 201.5,327.833 201.5,322.5 Z"/></g>
<g><path style="opacity:0.887" fill="#ce9233" d="M 92.5,352.5 C 97.8333,352.5 103.167,352.5 108.5,352.5C 108.5,357.833 108.5,363.167 108.5,368.5C 103.167,368.5 97.8333,368.5 92.5,368.5C 92.5,363.167 92.5,357.833 92.5,352.5 Z"/></g>
<g><path style="opacity:0.887" fill="#ce9233" d="M 201.5,352.5 C 206.833,352.5 212.167,352.5 217.5,352.5C 217.5,357.833 217.5,363.167 217.5,368.5C 212.167,368.5 206.833,368.5 201.5,368.5C 201.5,363.167 201.5,357.833 201.5,352.5 Z"/></g>
<g><path style="opacity:0.944" fill="#ce9233" d="M 62.5,511.5 C 46.5,511.5 30.5,511.5 14.5,511.5C 14.5,501.5 14.5,491.5 14.5,481.5C 10.1667,481.5 5.83333,481.5 1.5,481.5C 1.5,476.167 1.5,470.833 1.5,465.5C 5.83333,465.5 10.1667,465.5 14.5,465.5C 14.5,455.5 14.5,445.5 14.5,435.5C 30.5,435.5 46.5,435.5 62.5,435.5C 62.5,445.5 62.5,455.5 62.5,465.5C 65.1667,465.5 67.8333,465.5 70.5,465.5C 70.5,470.833 70.5,476.167 70.5,481.5C 67.8333,481.5 65.1667,481.5 62.5,481.5C 62.5,491.5 62.5,501.5 62.5,511.5 Z M 30.5,451.5 C 35.8333,451.5 41.1667,451.5 46.5,451.5C 46.5,466.167 46.5,480.833 46.5,495.5C 41.1667,495.5 35.8333,495.5 30.5,495.5C 30.5,480.833 30.5,466.167 30.5,451.5 Z"/></g>
<g><path style="opacity:0.94" fill="#ce9233" d="M 294.5,511.5 C 278.5,511.5 262.5,511.5 246.5,511.5C 246.5,501.5 246.5,491.5 246.5,481.5C 243.833,481.5 241.167,481.5 238.5,481.5C 238.5,476.167 238.5,470.833 238.5,465.5C 241.167,465.5 243.833,465.5 246.5,465.5C 246.5,455.5 246.5,445.5 246.5,435.5C 262.5,435.5 278.5,435.5 294.5,435.5C 294.5,445.5 294.5,455.5 294.5,465.5C 299.167,465.5 303.833,465.5 308.5,465.5C 308.5,470.833 308.5,476.167 308.5,481.5C 303.833,481.5 299.167,481.5 294.5,481.5C 294.5,491.5 294.5,501.5 294.5,511.5 Z M 262.5,451.5 C 267.833,451.5 273.167,451.5 278.5,451.5C 278.5,466.167 278.5,480.833 278.5,495.5C 273.167,495.5 267.833,495.5 262.5,495.5C 262.5,480.833 262.5,466.167 262.5,451.5 Z"/></g>
<g><path style="opacity:0.937" fill="#ce9233" d="M 84.5,465.5 C 131.167,465.5 177.833,465.5 224.5,465.5C 224.5,470.833 224.5,476.167 224.5,481.5C 177.833,481.5 131.167,481.5 84.5,481.5C 84.5,476.167 84.5,470.833 84.5,465.5 Z"/></g>
</svg>
