<?xml version="1.0" encoding="UTF-8"?>
<!DOCTYPE svg PUBLIC "-//W3C//DTD SVG 1.1//EN" "http://www.w3.org/Graphics/SVG/1.1/DTD/svg11.dtd">
<svg xmlns="http://www.w3.org/2000/svg" version="1.1" width="512px" height="512px" style="shape-rendering:geometricPrecision; text-rendering:geometricPrecision; image-rendering:optimizeQuality; fill-rule:evenodd; clip-rule:evenodd" xmlns:xlink="http://www.w3.org/1999/xlink">
<g><path style="opacity:0.932" fill="#ce9233" d="M 190.5,73.5 C 194.426,73.0466 197.592,74.3799 200,77.5C 200.667,135.833 200.667,194.167 200,252.5C 196.58,256.753 192.413,257.587 187.5,255C 186.107,253.829 185.273,252.329 185,250.5C 184.333,193.5 184.333,136.5 185,79.5C 186.36,76.9774 188.193,74.9774 190.5,73.5 Z"/></g>
<g><path style="opacity:0.857" fill="#ce9233" d="M 62.5,173.5 C 70.6417,173.481 73.8084,177.481 72,185.5C 67.6997,190.446 63.033,190.779 58,186.5C 55.5522,180.74 57.0522,176.407 62.5,173.5 Z"/></g>
<g><path style="opacity:0.932" fill="#ce9233" d="M 511.5,225.5 C 511.5,228.167 511.5,230.833 511.5,233.5C 509.99,234.836 508.323,236.003 506.5,237C 482.412,237.019 458.412,237.686 434.5,239C 432.951,240.214 431.785,241.714 431,243.5C 430.333,271.833 430.333,300.167 431,328.5C 431.785,330.286 432.951,331.786 434.5,333C 458.746,334.314 483.079,334.981 507.5,335C 509.027,336.032 510.36,337.199 511.5,338.5C 511.5,341.167 511.5,343.833 511.5,346.5C 509.99,347.836 508.323,349.003 506.5,350C 481.117,350.962 455.784,350.629 430.5,349C 423.5,346 418.5,341 415.5,334C 404.5,333.667 393.5,333.333 382.5,333C 372.097,327.665 368.097,319.165 370.5,307.5C 334.832,307.333 299.165,307.5 263.5,308C 260.382,309.059 257.382,310.392 254.5,312C 247.136,319.698 239.47,327.031 231.5,334C 221.951,335.457 218.451,331.624 221,322.5C 228.833,314.667 236.667,306.833 244.5,299C 249.66,295.501 255.326,293.167 261.5,292C 297.832,291.5 334.165,291.333 370.5,291.5C 370.5,287.833 370.5,284.167 370.5,280.5C 330.452,280.023 290.452,280.523 250.5,282C 247.554,282.806 244.888,284.139 242.5,286C 223.289,304.71 204.622,323.877 186.5,343.5C 187.633,347.81 190.3,349.31 194.5,348C 198.919,343.846 203.419,343.679 208,347.5C 210.968,353.728 209.468,358.561 203.5,362C 185.426,368.299 174.426,362.132 170.5,343.5C 170.943,338.761 172.443,334.428 175,330.5C 194.167,311.333 213.333,292.167 232.5,273C 240.628,267.846 249.462,264.68 259,263.5C 272.583,242.669 285.916,221.669 299,200.5C 300.932,197.116 303.432,194.282 306.5,192C 314.667,190.833 318.167,194.333 317,202.5C 304.207,223.255 291.041,243.755 277.5,264C 308.498,264.5 339.498,264.667 370.5,264.5C 367.799,250.031 373.465,241.198 387.5,238C 397.184,237.832 406.851,237.332 416.5,236.5C 419.882,228.948 425.549,224.115 433.5,222C 458.167,221.333 482.833,221.333 507.5,222C 509.35,222.69 510.684,223.856 511.5,225.5 Z M 388.5,253.5 C 397.167,253.5 405.833,253.5 414.5,253.5C 414.5,274.833 414.5,296.167 414.5,317.5C 405.249,317.818 396.083,317.485 387,316.5C 386.333,296.167 386.333,275.833 387,255.5C 387.717,254.956 388.217,254.289 388.5,253.5 Z"/></g>
<g><path style="opacity:0.913" fill="#ce9233" d="M 81.5,201.5 C 84.3063,201.822 86.8063,202.822 89,204.5C 109.015,235.201 128.515,266.201 147.5,297.5C 145.428,305.722 140.595,307.722 133,303.5C 114,273.833 95,244.167 76,214.5C 73.4591,208.254 75.2924,203.92 81.5,201.5 Z"/></g>
<g><path style="opacity:0.861" fill="#ce9233" d="M 188.5,274.5 C 192.257,274.071 195.757,274.737 199,276.5C 202.385,283.623 200.385,288.289 193,290.5C 184.068,287.207 182.568,281.874 188.5,274.5 Z"/></g>
<g><path style="opacity:0.896" fill="#ce9233" d="M 11.5,295.5 C 14.1873,295.336 16.854,295.503 19.5,296C 24.8333,298.333 30.1667,300.667 35.5,303C 41.0804,308.486 40.747,313.486 34.5,318C 25.7073,316.622 17.374,313.622 9.5,309C 6.53248,303.971 7.19915,299.471 11.5,295.5 Z"/></g>
<g><path style="opacity:0.909" fill="#ce9233" d="M 60.5,316.5 C 63.6074,316.351 66.6074,316.851 69.5,318C 81.5,323.333 93.5,328.667 105.5,334C 109.277,336.955 110.443,340.788 109,345.5C 106.588,348.792 103.421,349.959 99.5,349C 85.7161,343.275 72.0494,337.275 58.5,331C 54.1275,325.408 54.7942,320.575 60.5,316.5 Z"/></g>
<g><path style="opacity:0.906" fill="#ce9233" d="M 309.5,320.5 C 321.817,319.75 324.817,324.583 318.5,335C 307.833,339.667 297.167,344.333 286.5,349C 280.465,349.982 276.798,347.482 275.5,341.5C 275.833,338.99 276.833,336.823 278.5,335C 289.149,330.628 299.482,325.795 309.5,320.5 Z"/></g>
<g><path style="opacity:0.937" fill="#ce9233" d="M 511.5,381.5 C 511.5,384.167 511.5,386.833 511.5,389.5C 510.36,390.801 509.027,391.968 507.5,393C 401.834,393.5 296.167,393.667 190.5,393.5C 190.5,402.833 190.5,412.167 190.5,421.5C 296.167,421.333 401.834,421.5 507.5,422C 509.35,422.69 510.684,423.856 511.5,425.5C 511.5,428.167 511.5,430.833 511.5,433.5C 509.99,434.836 508.323,436.003 506.5,437C 339.167,437.667 171.833,437.667 4.5,437C 2.67694,436.003 1.01027,434.836 -0.5,433.5C -0.5,430.833 -0.5,428.167 -0.5,425.5C 0.316435,423.856 1.64977,422.69 3.5,422C 45.832,421.5 88.1654,421.333 130.5,421.5C 129.973,411.692 130.806,402.026 133,392.5C 136.713,385.122 142.546,380.288 150.5,378C 269.167,377.333 387.833,377.333 506.5,378C 508.323,378.997 509.99,380.164 511.5,381.5 Z M 153.5,393.5 C 160.5,393.5 167.5,393.5 174.5,393.5C 174.5,402.833 174.5,412.167 174.5,421.5C 165.167,421.5 155.833,421.5 146.5,421.5C 146.144,413.762 146.644,406.095 148,398.5C 149.73,396.598 151.563,394.931 153.5,393.5 Z"/></g>
</svg>
