<svg xmlns="http://www.w3.org/2000/svg" shape-rendering="geometricPrecision" text-rendering="geometricPrecision" image-rendering="optimizeQuality" fill-rule="evenodd" clip-rule="evenodd" viewBox="0 0 308 511.923"><path fill="#ce9233" fill-rule="nonzero" d="M31.535 434.713c-10.425 18.42-12.315 32.941-9.096 42.796 1.309 4.006 3.499 7.156 6.269 9.362 2.767 2.203 6.171 3.539 9.905 3.91 8.047.798 17.634-2.724 26.386-11.38.22-.218.448-.424.682-.618l200.265-191.908-.018-.018c13.985-13.984 20.978-23.151 20.978-30.896 0-7.744-6.993-16.911-20.978-30.896a10.016 10.016 0 01-.363-.382L65.018 32.501l-.019.02c-8.752-8.657-18.338-12.178-26.386-11.379-3.734.37-7.138 1.707-9.905 3.909-2.77 2.206-4.96 5.357-6.269 9.362-3.239 9.916-1.307 24.555 9.29 43.139l.116.211.007-.005 93.339 173.218a10.518 10.518 0 01-.076 10.111L31.852 434.164c-.1.188-.207.37-.317.549zM2.417 484.019c-4.886-14.956-2.881-35.47 10.804-59.648l90.744-168.41L13.313 87.728l.006-.003C-.455 63.471-2.481 42.895 2.417 27.903c2.643-8.091 7.258-14.608 13.19-19.332C21.543 3.845 28.742.988 36.554.213c13.938-1.384 29.767 3.95 43.276 17.312l-.018.018 200.31 191.952c.247.206.488.424.72.656C298.947 228.256 308 241.398 308 255.961c0 14.563-9.053 27.705-27.158 45.81l-.019-.019L80.236 493.973a9.5 9.5 0 01-.406.424c-13.509 13.362-29.338 18.697-43.276 17.313-7.813-.776-15.011-3.632-20.947-8.359-5.932-4.724-10.547-11.241-13.19-19.332z"/></svg>
