<?xml version="1.0" encoding="UTF-8"?>
<!DOCTYPE svg PUBLIC "-//W3C//DTD SVG 1.1//EN" "http://www.w3.org/Graphics/SVG/1.1/DTD/svg11.dtd">
<svg xmlns="http://www.w3.org/2000/svg" version="1.1" width="512px" height="512px" style="shape-rendering:geometricPrecision; text-rendering:geometricPrecision; image-rendering:optimizeQuality; fill-rule:evenodd; clip-rule:evenodd" xmlns:xlink="http://www.w3.org/1999/xlink">
<g><path style="opacity:0.964" fill="#ce9233" d="M 119.5,20.5 C 210.167,20.3333 300.834,20.5 391.5,21C 417.565,26.3984 432.732,42.2317 437,68.5C 437.5,91.4976 437.667,114.498 437.5,137.5C 456.274,134.786 469.774,141.786 478,158.5C 479.145,180.118 479.645,201.785 479.5,223.5C 479.645,245.215 479.145,266.882 478,288.5C 469.774,305.214 456.274,312.214 437.5,309.5C 437.667,333.502 437.5,357.502 437,381.5C 430.398,435.431 401.231,470.598 349.5,487C 343.878,488.258 338.211,489.258 332.5,490C 281.167,490.667 229.833,490.667 178.5,490C 117.161,479.328 82.3278,443.162 74,381.5C 73.5,357.502 73.3334,333.502 73.5,309.5C 54.7259,312.214 41.2259,305.214 33,288.5C 31.8493,266.895 31.3493,245.228 31.5,223.5C 31.3493,201.772 31.8493,180.105 33,158.5C 41.2259,141.786 54.7259,134.786 73.5,137.5C 73.3334,114.164 73.5,90.831 74,67.5C 78.9078,41.7607 94.0744,26.0941 119.5,20.5 Z M 123.5,42.5 C 211.501,42.3333 299.501,42.5 387.5,43C 404.47,46.6392 413.636,57.1392 415,74.5C 415.969,178.514 415.635,282.514 414,386.5C 404.267,433.899 375.434,461.066 327.5,468C 276.808,468.963 226.142,468.629 175.5,467C 134.296,458.129 108.462,433.295 98,392.5C 96.9552,385.875 96.2886,379.208 96,372.5C 95.3333,273.167 95.3333,173.833 96,74.5C 97.5529,57.1243 106.72,46.4576 123.5,42.5 Z M 149.5,138.5 C 220.167,138.5 290.833,138.5 361.5,138.5C 361.5,159.5 361.5,180.5 361.5,201.5C 290.833,201.5 220.167,201.5 149.5,201.5C 149.5,180.5 149.5,159.5 149.5,138.5 Z M 63.5,159.5 C 66.8333,159.5 70.1667,159.5 73.5,159.5C 73.5,202.167 73.5,244.833 73.5,287.5C 68.752,287.725 64.0853,287.225 59.5,286C 57,284.833 55.1667,283 54,280.5C 53.3333,242.5 53.3333,204.5 54,166.5C 56.0863,162.555 59.253,160.221 63.5,159.5 Z M 437.5,159.5 C 442.248,159.275 446.915,159.775 451.5,161C 454,162.167 455.833,164 457,166.5C 457.667,204.5 457.667,242.5 457,280.5C 455.833,283 454,284.833 451.5,286C 446.915,287.225 442.248,287.725 437.5,287.5C 437.5,244.833 437.5,202.167 437.5,159.5 Z"/></g>
<g><path style="opacity:0.971" fill="#ce9233" d="M 134.5,116.5 C 215.167,116.333 295.834,116.5 376.5,117C 379.583,117.786 381.749,119.619 383,122.5C 383.667,154.167 383.667,185.833 383,217.5C 381.833,220 380,221.833 377.5,223C 296.167,223.667 214.833,223.667 133.5,223C 131,221.833 129.167,220 128,217.5C 127.333,185.833 127.333,154.167 128,122.5C 129.494,119.686 131.66,117.686 134.5,116.5 Z M 149.5,138.5 C 149.5,159.5 149.5,180.5 149.5,201.5C 220.167,201.5 290.833,201.5 361.5,201.5C 361.5,180.5 361.5,159.5 361.5,138.5C 290.833,138.5 220.167,138.5 149.5,138.5 Z"/></g>
</svg>
