<?xml version="1.0" encoding="UTF-8"?>
<!DOCTYPE svg PUBLIC "-//W3C//DTD SVG 1.1//EN" "http://www.w3.org/Graphics/SVG/1.1/DTD/svg11.dtd">
<svg xmlns="http://www.w3.org/2000/svg" version="1.1" width="512px" height="512px" style="shape-rendering:geometricPrecision; text-rendering:geometricPrecision; image-rendering:optimizeQuality; fill-rule:evenodd; clip-rule:evenodd" xmlns:xlink="http://www.w3.org/1999/xlink">
<g><path style="opacity:0.94" fill="#ce9233" d="M 72.5,-0.5 C 126.167,-0.5 179.833,-0.5 233.5,-0.5C 269,6.49918 292.5,27.1658 304,61.5C 305.515,67.0754 306.515,72.7421 307,78.5C 307.333,99.5 307.667,120.5 308,141.5C 325.5,124 343,106.5 360.5,89C 371.734,80.0685 383.401,79.4019 395.5,87C 405.333,96.8333 415.167,106.667 425,116.5C 431.251,127.396 430.917,138.063 424,148.5C 384.333,188.167 344.667,227.833 305,267.5C 301.945,281.668 297.111,295.168 290.5,308C 296.86,307.53 303.193,306.53 309.5,305C 315.426,303.89 321.092,304.556 326.5,307C 333,313.5 339.5,320 346,326.5C 348.424,331.57 349.091,336.903 348,342.5C 346.642,344.859 345.642,347.193 345,349.5C 358.73,362.561 371.73,376.228 384,390.5C 385.842,394.815 385.842,399.148 384,403.5C 381.588,407.916 378.422,411.749 374.5,415C 385.03,425.196 395.197,435.696 405,446.5C 411.202,457.393 410.869,468.059 404,478.5C 394.833,487.667 385.667,496.833 376.5,506C 373.233,508.13 369.9,509.963 366.5,511.5C 361.833,511.5 357.167,511.5 352.5,511.5C 349.592,510.046 346.592,508.546 343.5,507C 306.972,470.806 270.805,434.306 235,397.5C 233.438,395.043 232.438,392.376 232,389.5C 231.667,383.5 231.333,377.5 231,371.5C 220.248,377.86 208.915,382.86 197,386.5C 196.667,421.167 196.333,455.833 196,490.5C 193.831,501.161 187.664,508.161 177.5,511.5C 161.167,511.5 144.833,511.5 128.5,511.5C 120.186,508.018 114.353,502.018 111,493.5C 110.833,457.829 110.333,422.162 109.5,386.5C 46.7099,364.714 10.0432,321.048 -0.5,255.5C -0.5,194.5 -0.5,133.5 -0.5,72.5C 8.17559,32.4911 32.5089,8.15774 72.5,-0.5 Z M 74.5,17.5 C 128.538,17.0214 182.538,17.5214 236.5,19C 259.568,25.4077 275.735,39.5743 285,61.5C 287.125,67.6679 288.459,74.0012 289,80.5C 289.667,107.167 289.667,133.833 289,160.5C 278.636,170.529 268.636,180.863 259,191.5C 257.35,194.45 256.517,197.617 256.5,201C 257.581,205.806 258.081,210.64 258,215.5C 246.268,226.563 235.268,238.229 225,250.5C 204.969,284.955 207.469,317.621 232.5,348.5C 221.478,356.262 209.644,362.596 197,367.5C 196.96,332.133 196.293,296.8 195,261.5C 188.509,241.013 174.509,230.346 153,229.5C 130.726,230.635 116.726,241.968 111,263.5C 110.667,298.167 110.333,332.833 110,367.5C 57.271,347.426 26.6044,309.426 18,253.5C 17.3333,193.833 17.3333,134.167 18,74.5C 25.0141,43.653 43.8474,24.653 74.5,17.5 Z M 68.5,85.5 C 80.1857,85.1678 91.8523,85.5011 103.5,86.5C 92.6605,108.848 81.3272,130.848 69.5,152.5C 68.5003,130.177 68.167,107.843 68.5,85.5 Z M 124.5,85.5 C 131.863,85.1694 139.197,85.5027 146.5,86.5C 135.667,108.167 124.833,129.833 114,151.5C 106.558,152.813 99.0579,152.813 91.5,151.5C 102.513,129.473 113.513,107.473 124.5,85.5 Z M 167.5,85.5 C 190.833,85.5 214.167,85.5 237.5,85.5C 237.5,107.833 237.5,130.167 237.5,152.5C 203.16,152.833 168.827,152.5 134.5,151.5C 145.513,129.473 156.513,107.473 167.5,85.5 Z M 377.5,99.5 C 379.655,99.372 381.655,99.872 383.5,101C 392.333,109.833 401.167,118.667 410,127.5C 411.85,130.463 411.85,133.463 410,136.5C 389.667,156.833 369.333,177.167 349,197.5C 337.167,185.667 325.333,173.833 313.5,162C 334.424,140.574 355.757,119.741 377.5,99.5 Z M 299.5,175.5 C 312.094,186.425 324.094,198.092 335.5,210.5C 319.847,226.653 304.014,242.653 288,258.5C 283.655,239.453 279.155,220.453 274.5,201.5C 282.855,192.813 291.188,184.146 299.5,175.5 Z M 263.5,235.5 C 265.224,241.556 266.891,247.723 268.5,254C 262.634,259.531 257.134,265.365 252,271.5C 240.941,294.204 244.774,314.038 263.5,331C 259.985,334.682 256.318,338.182 252.5,341.5C 227.707,318.744 223.207,292.411 239,262.5C 246.635,253.031 254.801,244.031 263.5,235.5 Z M 148.5,247.5 C 164.487,246.66 174.32,253.994 178,269.5C 178.667,342.167 178.667,414.833 178,487.5C 177.315,490.057 175.815,491.891 173.5,493C 159.833,493.667 146.167,493.667 132.5,493C 131.333,491.833 130.167,490.667 129,489.5C 128.333,415.167 128.333,340.833 129,266.5C 132.112,256.553 138.612,250.219 148.5,247.5 Z M 274.5,273.5 C 277.564,274.528 280.564,275.862 283.5,277.5C 279.919,288.747 275.086,299.414 269,309.5C 260.856,296.055 262.689,284.055 274.5,273.5 Z M 312.5,322.5 C 313.873,322.343 315.207,322.51 316.5,323C 320.667,327.167 324.833,331.333 329,335.5C 327.498,339.405 326.332,343.572 325.5,348C 325.758,352.65 327.258,356.817 330,360.5C 342.167,372.667 354.333,384.833 366.5,397C 362.578,400.251 359.412,404.084 357,408.5C 356.174,413.589 356.508,418.589 358,423.5C 369.369,435.2 380.369,447.2 391,459.5C 391.706,461.971 391.373,464.305 390,466.5C 381.137,475.697 371.97,484.531 362.5,493C 359.697,493.755 357.03,493.422 354.5,492C 319.305,457.139 284.472,421.972 250,386.5C 249.333,381.167 249.333,375.833 250,370.5C 264.5,356 279,341.5 293.5,327C 300.006,325.67 306.339,324.17 312.5,322.5 Z"/></g>
<g><path style="opacity:0.933" fill="#ce9233" d="M 484.5,-0.5 C 489.167,-0.5 493.833,-0.5 498.5,-0.5C 504.525,2.19213 508.859,6.52546 511.5,12.5C 511.5,17.1667 511.5,21.8333 511.5,26.5C 501.29,47.9165 488.79,67.9165 474,86.5C 459.287,101.884 441.787,106.717 421.5,101C 407.727,91.0109 403.561,77.8442 409,61.5C 412.442,52.7785 417.275,44.9452 423.5,38C 442.21,22.6422 462.543,9.80885 484.5,-0.5 Z M 489.5,17.5 C 490.833,17.5 492.167,17.5 493.5,17.5C 493.66,19.1992 493.494,20.8659 493,22.5C 484.084,40.679 473.418,57.679 461,73.5C 452.595,82.6428 442.428,86.4761 430.5,85C 428.274,83.7727 426.774,81.9393 426,79.5C 424.523,70.9307 426.523,63.264 432,56.5C 437.916,49.6205 444.749,43.7872 452.5,39C 464.569,31.3017 476.902,24.135 489.5,17.5 Z"/></g>
<g><path style="opacity:0.942" fill="#ce9233" d="M 62.5,67.5 C 123.892,67.0112 185.225,67.5112 246.5,69C 252.297,72.0907 255.464,76.9241 256,83.5C 256.952,108.875 256.619,134.208 255,159.5C 252.744,164.757 248.91,168.257 243.5,170C 183.167,170.667 122.833,170.667 62.5,170C 56.6667,168.167 52.8333,164.333 51,158.5C 50.3333,132.167 50.3333,105.833 51,79.5C 53.0188,73.6498 56.8522,69.6498 62.5,67.5 Z M 68.5,85.5 C 68.167,107.843 68.5003,130.177 69.5,152.5C 81.3272,130.848 92.6605,108.848 103.5,86.5C 91.8523,85.5011 80.1857,85.1678 68.5,85.5 Z M 124.5,85.5 C 113.513,107.473 102.513,129.473 91.5,151.5C 99.0579,152.813 106.558,152.813 114,151.5C 124.833,129.833 135.667,108.167 146.5,86.5C 139.197,85.5027 131.863,85.1694 124.5,85.5 Z M 167.5,85.5 C 156.513,107.473 145.513,129.473 134.5,151.5C 168.827,152.5 203.16,152.833 237.5,152.5C 237.5,130.167 237.5,107.833 237.5,85.5C 214.167,85.5 190.833,85.5 167.5,85.5 Z"/></g>
<g><path style="opacity:0.876" fill="#ce9233" d="M 303.5,207.5 C 313.157,206.658 316.99,210.991 315,220.5C 311.56,225.458 307.06,226.625 301.5,224C 295.955,217.695 296.622,212.195 303.5,207.5 Z"/></g>
<g><path style="opacity:0.884" fill="#ce9233" d="M 149.5,272.5 C 161.249,272.398 164.582,277.564 159.5,288C 149.062,292.228 144.228,288.728 145,277.5C 146.025,275.313 147.525,273.646 149.5,272.5 Z"/></g>
<g><path style="opacity:0.874" fill="#ce9233" d="M 149.5,306.5 C 156.839,305.173 161.172,308.173 162.5,315.5C 161.375,322.465 157.375,325.298 150.5,324C 144.908,321.598 143.075,317.431 145,311.5C 146.025,309.313 147.525,307.646 149.5,306.5 Z"/></g>
<g><path style="opacity:0.877" fill="#ce9233" d="M 274.5,369.5 C 284.077,369.664 287.577,374.33 285,383.5C 281.95,387.13 278.117,388.297 273.5,387C 268.845,384.103 267.345,379.937 269,374.5C 270.107,371.887 271.94,370.22 274.5,369.5 Z"/></g>
</svg>
